<?xml version="1.0" encoding="UTF-8" standalone="no"?>
<!-- Created with Inkscape (http://www.inkscape.org/) -->

<svg
   xmlns:dc="http://purl.org/dc/elements/1.1/"
   xmlns:cc="http://creativecommons.org/ns#"
   xmlns:rdf="http://www.w3.org/1999/02/22-rdf-syntax-ns#"
   xmlns:svg="http://www.w3.org/2000/svg"
   xmlns="http://www.w3.org/2000/svg"
   xmlns:sodipodi="http://sodipodi.sourceforge.net/DTD/sodipodi-0.dtd"
   xmlns:inkscape="http://www.inkscape.org/namespaces/inkscape"
   width="297mm"
   height="210mm"
   viewBox="0 0 297 210"
   version="1.1"
   id="svg3710"
   inkscape:version="0.92.4 (5da689c313, 2019-01-14)"
   sodipodi:docname="sign_base_150mm_edge_led.svg">
  <sodipodi:namedview
     id="base"
     pagecolor="#ffffff"
     bordercolor="#666666"
     borderopacity="1.0"
     inkscape:pageopacity="0.0"
     inkscape:pageshadow="2"
     inkscape:zoom="1.0190343"
     inkscape:cx="400.65953"
     inkscape:cy="464.22324"
     inkscape:document-units="mm"
     inkscape:current-layer="layer1"
     showgrid="true"
     inkscape:window-width="1920"
     inkscape:window-height="1027"
     inkscape:window-x="-8"
     inkscape:window-y="-8"
     inkscape:window-maximized="1">
    <inkscape:grid
       type="xygrid"
       id="grid3712"
       units="mm"
       spacingx="0.25"
       spacingy="0.25"
       snapvisiblegridlinesonly="false" />
  </sodipodi:namedview>
  <defs
     id="defs3704" />
  <metadata
     id="metadata3707">
    <rdf:RDF>
      <cc:Work
         rdf:about="">
        <dc:format>image/svg+xml</dc:format>
        <dc:type
           rdf:resource="http://purl.org/dc/dcmitype/StillImage" />
        <dc:title></dc:title>
      </cc:Work>
    </rdf:RDF>
  </metadata>
  <g
     inkscape:label="Layer 1"
     inkscape:groupmode="layer"
     id="layer1"
     transform="translate(0,-87)">
    <path
       style="opacity:1;fill:none;fill-opacity:1;stroke:#000000;stroke-width:0.10000001;stroke-linejoin:miter;stroke-miterlimit:4;stroke-dasharray:none;stroke-opacity:1"
       d="M 34.999992,117.00001 H 195.00001 C 197.77,117.00001 200,119.23 200,122 v 20.00002 c 0,2.76999 -2.23,4.99999 -4.99999,4.99999 H 34.999992 C 32.229997,147.00001 30,144.77001 30,142.00002 V 122 c 0,-2.77 2.229997,-4.99999 4.999992,-4.99999 z"
       id="rect1993"
       inkscape:connector-curvature="0" />
    <path
       style="opacity:1;fill:none;fill-opacity:1;stroke:#ff0000;stroke-width:0.37795275;stroke-linejoin:miter;stroke-miterlimit:4;stroke-dasharray:none;stroke-opacity:1"
       d="m 183.30709,113.38583 v 18.89764 l -27.40158,27.40157 h -5.66929 v 20.7874 h 568.81891 v -20.7874 h -516.8504 v -46.29921 z"
       id="rect1995"
       transform="matrix(0.26458333,0,0,0.26458333,0,87)"
       inkscape:connector-curvature="0"
       sodipodi:nodetypes="cccccccccc" />
    <path
       style="opacity:1;fill:none;fill-opacity:1;fill-rule:evenodd;stroke:#000000;stroke-width:0.07833334;stroke-linecap:square;stroke-linejoin:miter;stroke-miterlimit:4;stroke-dasharray:none;stroke-opacity:1"
       d="M 43.175,142 A 1.175,1.175 0 0 1 42,143.175 1.175,1.175 0 0 1 40.825,142 1.175,1.175 0 0 1 42,140.825 1.175,1.175 0 0 1 43.175,142 Z"
       id="path1105"
       inkscape:connector-curvature="0" />
    <path
       style="opacity:1;fill:none;fill-opacity:1;fill-rule:evenodd;stroke:#000000;stroke-width:0.07833334;stroke-linecap:square;stroke-linejoin:miter;stroke-miterlimit:4;stroke-dasharray:none;stroke-opacity:1"
       d="m 43.224999,122 a 1.175,1.175 0 0 1 -1.175,1.175 1.175,1.175 0 0 1 -1.175,-1.175 1.175,1.175 0 0 1 1.175,-1.175 1.175,1.175 0 0 1 1.175,1.175 z"
       id="ellipse1107"
       inkscape:connector-curvature="0" />
    <path
       style="opacity:1;fill:none;fill-opacity:1;fill-rule:evenodd;stroke:#000000;stroke-width:0.07833334;stroke-linecap:square;stroke-linejoin:miter;stroke-miterlimit:4;stroke-dasharray:none;stroke-opacity:1"
       d="M 61.175,122 A 1.175,1.175 0 0 1 60,123.175 1.175,1.175 0 0 1 58.825,122 1.175,1.175 0 0 1 60,120.825 1.175,1.175 0 0 1 61.175,122 Z"
       id="circle1109"
       inkscape:connector-curvature="0" />
    <path
       style="opacity:1;fill:none;fill-opacity:1;fill-rule:evenodd;stroke:#000000;stroke-width:0.07833334;stroke-linecap:square;stroke-linejoin:miter;stroke-miterlimit:4;stroke-dasharray:none;stroke-opacity:1"
       d="M 189.175,122 A 1.175,1.175 0 0 1 188,123.175 1.175,1.175 0 0 1 186.825,122 1.175,1.175 0 0 1 188,120.825 1.175,1.175 0 0 1 189.175,122 Z"
       id="circle1111"
       inkscape:connector-curvature="0" />
    <path
       style="opacity:1;fill:none;fill-opacity:1;fill-rule:evenodd;stroke:#000000;stroke-width:0.07833334;stroke-linecap:square;stroke-linejoin:miter;stroke-miterlimit:4;stroke-dasharray:none;stroke-opacity:1"
       d="M 189.175,142 A 1.175,1.175 0 0 1 188,143.175 1.175,1.175 0 0 1 186.825,142 1.175,1.175 0 0 1 188,140.825 1.175,1.175 0 0 1 189.175,142 Z"
       id="circle1113"
       inkscape:connector-curvature="0" />
    <path
       transform="scale(1,-1)"
       style="opacity:1;fill:none;fill-opacity:1;stroke:#000000;stroke-width:0.10000001;stroke-linejoin:miter;stroke-miterlimit:4;stroke-dasharray:none;stroke-opacity:1"
       d="M 34.999992,-182 H 195.00001 c 2.76999,0 4.99999,2.23 4.99999,4.99999 v 20.00002 c 0,2.77 -2.23,4.99999 -4.99999,4.99999 H 34.999992 C 32.229997,-152 30,-154.22999 30,-156.99999 v -20.00002 C 30,-179.77 32.229997,-182 34.999992,-182 Z"
       id="rect1132"
       inkscape:connector-curvature="0" />
    <path
       style="opacity:1;fill:none;fill-opacity:1;stroke:#000000;stroke-width:0.1;stroke-linejoin:miter;stroke-miterlimit:4;stroke-dasharray:none;stroke-opacity:1"
       d="M 40.000142,164.50006 H 189.99977 v 4.99969 L 40,169.49987 Z"
       id="path1134"
       inkscape:connector-curvature="0"
       sodipodi:nodetypes="ccccc" />
    <path
       transform="scale(1,-1)"
       style="opacity:1;fill:none;fill-opacity:1;fill-rule:evenodd;stroke:#000000;stroke-width:0.10197067;stroke-linecap:square;stroke-linejoin:miter;stroke-miterlimit:4;stroke-dasharray:none;stroke-opacity:1"
       d="m 43.5,-156.95 a 1.5,1.55 0 0 1 -1.5,1.55 1.5,1.55 0 0 1 -1.5,-1.55 1.5,1.55 0 0 1 1.5,-1.55 1.5,1.55 0 0 1 1.5,1.55 z"
       id="circle1136"
       inkscape:connector-curvature="0" />
    <path
       transform="scale(1,-1)"
       style="opacity:1;fill:none;fill-opacity:1;fill-rule:evenodd;stroke:#000000;stroke-width:0.10165297;stroke-linecap:square;stroke-linejoin:miter;stroke-miterlimit:4;stroke-dasharray:none;stroke-opacity:1"
       d="m 43.5,-176.95 a 1.5,1.55 0 0 1 -1.5,1.55 1.5,1.55 0 0 1 -1.5,-1.55 1.5,1.55 0 0 1 1.5,-1.55 1.5,1.55 0 0 1 1.5,1.55 z"
       id="circle1138"
       inkscape:connector-curvature="0" />
    <path
       transform="scale(1,-1)"
       style="opacity:1;fill:none;fill-opacity:1;fill-rule:evenodd;stroke:#000000;stroke-width:0.10165297;stroke-linecap:square;stroke-linejoin:miter;stroke-miterlimit:4;stroke-dasharray:none;stroke-opacity:1"
       d="m 61.5,-176.95 a 1.5,1.55 0 0 1 -1.5,1.55 1.5,1.55 0 0 1 -1.5,-1.55 1.5,1.55 0 0 1 1.5,-1.55 1.5,1.55 0 0 1 1.5,1.55 z"
       id="circle1140"
       inkscape:connector-curvature="0" />
    <path
       transform="scale(1,-1)"
       style="opacity:1;fill:none;fill-opacity:1;fill-rule:evenodd;stroke:#000000;stroke-width:0.10165297;stroke-linecap:square;stroke-linejoin:miter;stroke-miterlimit:4;stroke-dasharray:none;stroke-opacity:1"
       d="m 189.5,-176.95 a 1.5,1.55 0 0 1 -1.5,1.55 1.5,1.55 0 0 1 -1.5,-1.55 1.5,1.55 0 0 1 1.5,-1.55 1.5,1.55 0 0 1 1.5,1.55 z"
       id="circle1142"
       inkscape:connector-curvature="0" />
    <path
       transform="scale(1,-1)"
       style="opacity:1;fill:none;fill-opacity:1;fill-rule:evenodd;stroke:#000000;stroke-width:0.10165297;stroke-linecap:square;stroke-linejoin:miter;stroke-miterlimit:4;stroke-dasharray:none;stroke-opacity:1"
       d="m 189.5,-156.95 a 1.5,1.55 0 0 1 -1.5,1.55 1.5,1.55 0 0 1 -1.5,-1.55 1.5,1.55 0 0 1 1.5,-1.55 1.5,1.55 0 0 1 1.5,1.55 z"
       id="circle1144"
       inkscape:connector-curvature="0" />
    <path
       style="opacity:1;fill:none;fill-opacity:1;stroke:#000000;stroke-width:0.10000001;stroke-linejoin:miter;stroke-miterlimit:4;stroke-dasharray:none;stroke-opacity:1"
       d="M 34.999992,187 H 195.00001 C 197.77,187 200,189.23 200,191.99999 v 20.00002 c 0,2.77 -2.23,4.99999 -4.99999,4.99999 H 34.999992 C 32.229997,217 30,214.77001 30,212.00001 V 191.99999 C 30,189.23 32.229997,187 34.999992,187 Z"
       id="rect1146"
       inkscape:connector-curvature="0" />
    <path
       inkscape:connector-curvature="0"
       id="path1148"
       d="M 40.000142,204.425 H 189.99977 v -4.85 H 40 Z"
       style="opacity:1;fill:none;fill-opacity:1;stroke:#000000;stroke-width:0.1;stroke-linejoin:miter;stroke-miterlimit:4;stroke-dasharray:none;stroke-opacity:1"
       sodipodi:nodetypes="ccccc" />
    <path
       style="opacity:1;fill:none;fill-opacity:1;fill-rule:evenodd;stroke:#000000;stroke-width:0.10165297;stroke-linecap:square;stroke-linejoin:miter;stroke-miterlimit:4;stroke-dasharray:none;stroke-opacity:1"
       d="m 43.5,211.95 a 1.5,1.55 0 0 1 -1.5,1.55 1.5,1.55 0 0 1 -1.5,-1.55 1.5,1.55 0 0 1 1.5,-1.55 1.5,1.55 0 0 1 1.5,1.55 z"
       id="circle1150"
       inkscape:connector-curvature="0" />
    <path
       style="opacity:1;fill:none;fill-opacity:1;fill-rule:evenodd;stroke:#000000;stroke-width:0.10165297;stroke-linecap:square;stroke-linejoin:miter;stroke-miterlimit:4;stroke-dasharray:none;stroke-opacity:1"
       d="m 43.5,191.95 a 1.5,1.55 0 0 1 -1.5,1.55 1.5,1.55 0 0 1 -1.5,-1.55 1.5,1.55 0 0 1 1.5,-1.55 1.5,1.55 0 0 1 1.5,1.55 z"
       id="circle1152"
       inkscape:connector-curvature="0" />
    <path
       style="opacity:1;fill:none;fill-opacity:1;fill-rule:evenodd;stroke:#000000;stroke-width:0.10165297;stroke-linecap:square;stroke-linejoin:miter;stroke-miterlimit:4;stroke-dasharray:none;stroke-opacity:1"
       d="m 61.5,191.95 a 1.5,1.55 0 0 1 -1.5,1.55 1.5,1.55 0 0 1 -1.5,-1.55 1.5,1.55 0 0 1 1.5,-1.55 1.5,1.55 0 0 1 1.5,1.55 z"
       id="circle1154"
       inkscape:connector-curvature="0" />
    <path
       style="opacity:1;fill:none;fill-opacity:1;fill-rule:evenodd;stroke:#000000;stroke-width:0.10165297;stroke-linecap:square;stroke-linejoin:miter;stroke-miterlimit:4;stroke-dasharray:none;stroke-opacity:1"
       d="m 189.5,191.95 a 1.5,1.55 0 0 1 -1.5,1.55 1.5,1.55 0 0 1 -1.5,-1.55 1.5,1.55 0 0 1 1.5,-1.55 1.5,1.55 0 0 1 1.5,1.55 z"
       id="circle1156"
       inkscape:connector-curvature="0" />
    <path
       style="opacity:1;fill:none;fill-opacity:1;fill-rule:evenodd;stroke:#000000;stroke-width:0.10165297;stroke-linecap:square;stroke-linejoin:miter;stroke-miterlimit:4;stroke-dasharray:none;stroke-opacity:1"
       d="m 189.5,211.95 a 1.5,1.55 0 0 1 -1.5,1.55 1.5,1.55 0 0 1 -1.5,-1.55 1.5,1.55 0 0 1 1.5,-1.55 1.5,1.55 0 0 1 1.5,1.55 z"
       id="circle1158"
       inkscape:connector-curvature="0" />
    <path
       transform="scale(1,-1)"
       style="opacity:1;fill:none;fill-opacity:1;fill-rule:evenodd;stroke:#ff0000;stroke-width:0.10963228;stroke-linecap:square;stroke-linejoin:miter;stroke-miterlimit:4;stroke-dasharray:none;stroke-opacity:1"
       d="m 48.5,-181.99997 h 5 v 0 12.74997 H 40.75 L 48.5,-177 Z"
       id="rect1160"
       inkscape:connector-curvature="0"
       sodipodi:nodetypes="ccccccc" />
    <path
       inkscape:connector-curvature="0"
       d=""
       style="fill:none;stroke:#0000ff;stroke-width:0.06870232"
       id="path1743" />
    <path
       inkscape:connector-curvature="0"
       d=""
       style="fill:none;stroke:#0000ff;stroke-width:0.06870232"
       id="path1749" />
    <g
       id="g1303"
       transform="translate(-7.763355)">
      <path
         id="path1735"
         style="fill:none;stroke:#0000ff;stroke-width:0.06870232"
         d="m 133,192.70141 v -1.44275 m 0,1.44275 -0.54962,-1.44275 m -0.54962,1.44275 0.54962,-1.44275 m -0.54962,1.44275 v -1.44275"
         inkscape:connector-curvature="0" />
      <path
         id="path1737"
         style="fill:none;stroke:#0000ff;stroke-width:0.06870232"
         d="m 130.59542,192.22049 v -0.96183 m 0,0.75572 0.1374,0.13741 0.13741,0.0687 h 0.2061 l 0.13741,-0.0687 0.1374,-0.13741 0.0687,-0.2061 v -0.13741 l -0.0687,-0.2061 -0.1374,-0.13741 -0.13741,-0.0687 h -0.2061 l -0.13741,0.0687 -0.1374,0.13741"
         inkscape:connector-curvature="0" />
      <path
         id="path1739"
         style="fill:none;stroke:#0000ff;stroke-width:0.06870232"
         d="m 129.29008,192.70141 v -1.44275 m 0,0.75572 0.1374,0.13741 0.13741,0.0687 h 0.2061 l 0.13741,-0.0687 0.1374,-0.13741 0.0687,-0.2061 v -0.13741 l -0.0687,-0.2061 -0.1374,-0.13741 -0.13741,-0.0687 h -0.2061 l -0.13741,0.0687 -0.1374,0.13741"
         inkscape:connector-curvature="0" />
      <path
         id="path1741"
         style="fill:none;stroke:#0000ff;stroke-width:0.06870232"
         d="m 128.80916,191.80828 h -0.82442 v 0.1374 l 0.0687,0.13741 0.0687,0.0687 0.13741,0.0687 h 0.2061 l 0.13741,-0.0687 0.1374,-0.13741 0.0687,-0.2061 v -0.13741 l -0.0687,-0.2061 -0.1374,-0.13741 -0.13741,-0.0687 h -0.2061 l -0.13741,0.0687 -0.1374,0.13741"
         inkscape:connector-curvature="0" />
      <path
         id="path1745"
         style="fill:none;stroke:#0000ff;stroke-width:0.06870232"
         d="m 126.47328,192.70141 -0.0687,-0.0687 -0.0687,0.0687 0.0687,0.0687 0.0687,-0.0687 m -0.0687,-0.48092 v -0.96183"
         inkscape:connector-curvature="0" />
      <path
         id="path1747"
         style="fill:none;stroke:#0000ff;stroke-width:0.06870232"
         d="m 125.85496,192.22049 v -0.96183 m 0,0.68702 -0.20611,0.20611 -0.1374,0.0687 h -0.20611 l -0.1374,-0.0687 -0.0687,-0.20611 v -0.68702"
         inkscape:connector-curvature="0" />
      <path
         id="path1751"
         style="fill:none;stroke:#0000ff;stroke-width:0.06870232"
         d="m 122.48854,192.3579 0.0687,0.1374 0.13741,0.13741 0.1374,0.0687 h 0.27481 l 0.13741,-0.0687 0.1374,-0.13741 0.0687,-0.1374 0.0687,-0.20611 v -0.34351 l -0.0687,-0.20611 -0.0687,-0.1374 -0.1374,-0.13741 -0.13741,-0.0687 h -0.27481 l -0.1374,0.0687 -0.13741,0.13741 -0.0687,0.1374"
         inkscape:connector-curvature="0" />
      <path
         id="path1753"
         style="fill:none;stroke:#0000ff;stroke-width:0.06870232"
         d="m 121.25191,192.22049 v -0.96183 m 0,0.75572 0.1374,0.13741 0.13741,0.0687 h 0.2061 l 0.13741,-0.0687 0.1374,-0.13741 0.0687,-0.2061 v -0.13741 l -0.0687,-0.2061 -0.1374,-0.13741 -0.13741,-0.0687 h -0.2061 l -0.13741,0.0687 -0.1374,0.13741"
         inkscape:connector-curvature="0" />
      <path
         id="path1755"
         style="fill:none;stroke:#0000ff;stroke-width:0.06870232"
         d="m 120.70229,192.22049 v -0.96183 m 0,0.68702 -0.20611,0.20611 -0.13741,0.0687 h -0.2061 l -0.13741,-0.0687 -0.0687,-0.20611 v -0.68702 m 0,0.68702 -0.20611,0.20611 -0.1374,0.0687 h -0.20611 l -0.1374,-0.0687 -0.0687,-0.20611 v -0.68702"
         inkscape:connector-curvature="0" />
      <path
         id="path1757"
         style="fill:none;stroke:#0000ff;stroke-width:0.06870232"
         d="m 118.64121,192.70141 v -1.44275 m 0,0.75572 -0.1374,0.13741 -0.13741,0.0687 h -0.2061 l -0.13741,-0.0687 -0.1374,-0.13741 -0.0687,-0.2061 v -0.13741 l 0.0687,-0.2061 0.1374,-0.13741 0.13741,-0.0687 h 0.2061 l 0.13741,0.0687 0.1374,0.13741"
         inkscape:connector-curvature="0" />
      <path
         id="path1759"
         style="fill:none;stroke:#0000ff;stroke-width:0.06870232"
         d="m 117.33587,192.22049 v -0.96183 m 0,0.54962 -0.0687,0.2061 -0.1374,0.13741 -0.1374,0.0687 h -0.20611"
         inkscape:connector-curvature="0" />
      <path
         id="path1761"
         style="fill:none;stroke:#0000ff;stroke-width:0.06870232"
         d="m 116.51144,192.70141 -0.0687,-0.0687 -0.0687,0.0687 0.0687,0.0687 0.0687,-0.0687 m -0.0687,-0.48092 v -0.96183"
         inkscape:connector-curvature="0" />
      <path
         id="path1763"
         style="fill:none;stroke:#0000ff;stroke-width:0.06870232"
         d="m 115.1374,192.70141 v -1.44275 m 0,0.75572 0.1374,0.13741 0.13741,0.0687 h 0.2061 l 0.13741,-0.0687 0.1374,-0.13741 0.0687,-0.2061 v -0.13741 l -0.0687,-0.2061 -0.1374,-0.13741 -0.13741,-0.0687 h -0.2061 l -0.13741,0.0687 -0.1374,0.13741"
         inkscape:connector-curvature="0" />
      <path
         id="path1765"
         style="fill:none;stroke:#0000ff;stroke-width:0.06870232"
         d="m 113.83206,192.22049 v -1.09924 l 0.0687,-0.2061 0.0687,-0.0687 0.13741,-0.0687 h 0.2061 l 0.13741,0.0687 m -0.61832,1.16793 0.1374,0.13741 0.13741,0.0687 h 0.2061 l 0.13741,-0.0687 0.1374,-0.13741 0.0687,-0.2061 v -0.13741 l -0.0687,-0.2061 -0.1374,-0.13741 -0.13741,-0.0687 h -0.2061 l -0.13741,0.0687 -0.1374,0.13741"
         inkscape:connector-curvature="0" />
      <path
         id="path1767"
         style="fill:none;stroke:#0000ff;stroke-width:0.06870232"
         d="m 113.35113,191.80828 h -0.82442 v 0.1374 l 0.0687,0.13741 0.0687,0.0687 0.13741,0.0687 h 0.2061 l 0.13741,-0.0687 0.1374,-0.13741 0.0687,-0.2061 v -0.13741 l -0.0687,-0.2061 -0.1374,-0.13741 -0.13741,-0.0687 h -0.2061 l -0.13741,0.0687 -0.1374,0.13741"
         inkscape:connector-curvature="0" />
    </g>
    <path
       inkscape:connector-curvature="0"
       d=""
       style="fill:none;stroke:#0000ff;stroke-width:0.06870232"
       id="path1769" />
    <path
       inkscape:connector-curvature="0"
       d=""
       style="fill:none;stroke:#0000ff;stroke-width:0.06870232"
       id="path1775" />
    <path
       inkscape:connector-curvature="0"
       d=""
       style="fill:none;stroke:#0000ff;stroke-width:0.06870232"
       id="path1785" />
    <text
       xml:space="preserve"
       style="font-style:normal;font-variant:normal;font-weight:normal;font-stretch:normal;font-size:7.05555534px;line-height:7px;font-family:sans-serif;-inkscape-font-specification:sans-serif;text-align:center;letter-spacing:0px;word-spacing:0px;text-anchor:middle;fill:#ff00ff;fill-opacity:1;stroke:#ff00ff;stroke-width:0.1;stroke-linecap:butt;stroke-linejoin:miter;stroke-miterlimit:4;stroke-dasharray:none;stroke-opacity:1"
       x="114.80191"
       y="100.27892"
       id="text4568"><tspan
         sodipodi:role="line"
         id="tspan4566"
         x="114.80191"
         y="100.27892"
         style="font-style:normal;font-variant:normal;font-weight:normal;font-stretch:normal;line-height:7px;font-family:sans-serif;-inkscape-font-specification:sans-serif;text-align:center;letter-spacing:0px;text-anchor:middle;fill:#ff00ff;stroke:#ff00ff;stroke-width:0.1;stroke-miterlimit:4;stroke-dasharray:none">Base for edge illuminated sign, 150mm</tspan></text>
    <text
       xml:space="preserve"
       style="font-style:normal;font-variant:normal;font-weight:normal;font-stretch:normal;font-size:4.23333311px;line-height:52.91666412px;font-family:sans-serif;-inkscape-font-specification:sans-serif;text-align:center;letter-spacing:0px;word-spacing:0px;text-anchor:middle;fill:#ff00ff;fill-opacity:1;stroke:#ff00ff;stroke-width:0.05;stroke-linecap:butt;stroke-linejoin:miter;stroke-miterlimit:4;stroke-dasharray:none;stroke-opacity:1"
       x="115.0062"
       y="108.77892"
       id="text4572"><tspan
         sodipodi:role="line"
         id="tspan4570"
         x="115.0062"
         y="108.77892"
         style="font-style:normal;font-variant:normal;font-weight:normal;font-stretch:normal;font-size:4.23333311px;font-family:sans-serif;-inkscape-font-specification:sans-serif;text-align:center;letter-spacing:0px;text-anchor:middle;fill:#ff00ff;stroke:#ff00ff;stroke-width:0.05;stroke-miterlimit:4;stroke-dasharray:none">using Makespace laser cutters (0.15mm kerf) &amp; 3mm acrylic sheet</tspan></text>
    <text
       id="text4576"
       y="123.69729"
       x="211.01759"
       style="font-style:normal;font-variant:normal;font-weight:normal;font-stretch:normal;font-size:4.23333311px;line-height:6px;font-family:sans-serif;-inkscape-font-specification:sans-serif;text-align:start;letter-spacing:0px;word-spacing:0px;text-anchor:start;fill:#ff00ff;fill-opacity:1;stroke:#ff00ff;stroke-width:0.05;stroke-linecap:butt;stroke-linejoin:miter;stroke-miterlimit:4;stroke-dasharray:none;stroke-opacity:1"
       xml:space="preserve"><tspan
         style="font-style:normal;font-variant:normal;font-weight:normal;font-stretch:normal;font-size:4.23333311px;line-height:6px;font-family:sans-serif;-inkscape-font-specification:sans-serif;text-align:start;letter-spacing:0px;text-anchor:start;fill:#ff00ff;stroke:#ff00ff;stroke-width:0.05;stroke-miterlimit:4;stroke-dasharray:none"
         y="123.69729"
         x="211.01759"
         id="tspan4574"
         sodipodi:role="line">Bottom layer,</tspan><tspan
         style="font-style:normal;font-variant:normal;font-weight:normal;font-stretch:normal;font-size:4.23333311px;line-height:6px;font-family:sans-serif;-inkscape-font-specification:sans-serif;text-align:start;letter-spacing:0px;text-anchor:start;fill:#ff00ff;stroke:#ff00ff;stroke-width:0.05;stroke-miterlimit:4;stroke-dasharray:none"
         y="129.69728"
         x="211.01759"
         sodipodi:role="line"
         id="tspan4580">tap for 5 x M3</tspan><tspan
         style="font-style:normal;font-variant:normal;font-weight:normal;font-stretch:normal;font-size:4.23333311px;line-height:6px;font-family:sans-serif;-inkscape-font-specification:sans-serif;text-align:start;letter-spacing:0px;text-anchor:start;fill:#ff00ff;stroke:#ff00ff;stroke-width:0.05;stroke-miterlimit:4;stroke-dasharray:none"
         y="135.69728"
         x="211.01759"
         sodipodi:role="line"
         id="tspan4662">nylon screws</tspan><tspan
         style="font-style:normal;font-variant:normal;font-weight:normal;font-stretch:normal;font-size:4.23333311px;line-height:6px;font-family:sans-serif;-inkscape-font-specification:sans-serif;text-align:start;letter-spacing:0px;text-anchor:start;fill:#ff00ff;stroke:#ff00ff;stroke-width:0.05;stroke-miterlimit:4;stroke-dasharray:none"
         y="141.69728"
         x="211.01759"
         sodipodi:role="line"
         id="tspan4578" /></text>
    <text
       xml:space="preserve"
       style="font-style:normal;font-variant:normal;font-weight:normal;font-stretch:normal;font-size:4.23333311px;line-height:6px;font-family:sans-serif;-inkscape-font-specification:sans-serif;text-align:start;letter-spacing:0px;word-spacing:0px;text-anchor:start;fill:#ff00ff;fill-opacity:1;stroke:#ff00ff;stroke-width:0.05;stroke-linecap:butt;stroke-linejoin:miter;stroke-miterlimit:4;stroke-dasharray:none;stroke-opacity:1"
       x="210.73235"
       y="158.58015"
       id="text4588"><tspan
         id="tspan4584"
         sodipodi:role="line"
         x="210.73235"
         y="158.58015"
         style="font-style:normal;font-variant:normal;font-weight:normal;font-stretch:normal;font-size:4.23333311px;line-height:6px;font-family:sans-serif;-inkscape-font-specification:sans-serif;text-align:start;letter-spacing:0px;text-anchor:start;fill:#ff00ff;stroke:#ff00ff;stroke-width:0.05;stroke-miterlimit:4;stroke-dasharray:none">Mid layer</tspan><tspan
         id="tspan4586"
         sodipodi:role="line"
         x="210.73235"
         y="164.58015"
         style="font-style:normal;font-variant:normal;font-weight:normal;font-stretch:normal;font-size:4.23333311px;line-height:6px;font-family:sans-serif;-inkscape-font-specification:sans-serif;text-align:start;letter-spacing:0px;text-anchor:start;fill:#ff00ff;stroke:#ff00ff;stroke-width:0.05;stroke-miterlimit:4;stroke-dasharray:none" /></text>
    <text
       xml:space="preserve"
       style="font-style:normal;font-variant:normal;font-weight:normal;font-stretch:normal;font-size:4.23333311px;line-height:6px;font-family:sans-serif;-inkscape-font-specification:sans-serif;text-align:start;letter-spacing:0px;word-spacing:0px;text-anchor:start;fill:#ff00ff;fill-opacity:1;stroke:#ff00ff;stroke-width:0.05;stroke-linecap:butt;stroke-linejoin:miter;stroke-miterlimit:4;stroke-dasharray:none;stroke-opacity:1"
       x="210.18156"
       y="193.64664"
       id="text4598"><tspan
         id="tspan4594"
         sodipodi:role="line"
         x="210.18156"
         y="193.64664"
         style="font-style:normal;font-variant:normal;font-weight:normal;font-stretch:normal;font-size:4.23333311px;line-height:6px;font-family:sans-serif;-inkscape-font-specification:sans-serif;text-align:start;letter-spacing:0px;text-anchor:start;fill:#ff00ff;stroke:#ff00ff;stroke-width:0.05;stroke-miterlimit:4;stroke-dasharray:none">Top layer</tspan><tspan
         id="tspan4596"
         sodipodi:role="line"
         x="210.18156"
         y="199.64664"
         style="font-style:normal;font-variant:normal;font-weight:normal;font-stretch:normal;font-size:4.23333311px;line-height:6px;font-family:sans-serif;-inkscape-font-specification:sans-serif;text-align:start;letter-spacing:0px;text-anchor:start;fill:#ff00ff;stroke:#ff00ff;stroke-width:0.05;stroke-miterlimit:4;stroke-dasharray:none" /></text>
    <path
       inkscape:connector-curvature="0"
       id="path4602"
       d="m 192.5,199.575 15,-0.05"
       style="fill:none;fill-rule:evenodd;stroke:#ff00ff;stroke-width:0.2;stroke-linecap:butt;stroke-linejoin:miter;stroke-miterlimit:4;stroke-dasharray:0.8, 0.8;stroke-dashoffset:0;stroke-opacity:1"
       sodipodi:nodetypes="cc" />
    <path
       style="fill:none;fill-rule:evenodd;stroke:#ff00ff;stroke-width:0.2;stroke-linecap:butt;stroke-linejoin:miter;stroke-miterlimit:4;stroke-dasharray:0.8, 0.8;stroke-dashoffset:0;stroke-opacity:1"
       d="m 192.5,204.475 h 15"
       id="path4604"
       inkscape:connector-curvature="0"
       sodipodi:nodetypes="cc" />
    <path
       style="fill:none;fill-rule:evenodd;stroke:#ff00ff;stroke-width:0.2;stroke-linecap:butt;stroke-linejoin:miter;stroke-miterlimit:4;stroke-dasharray:none;stroke-opacity:1"
       d="m 203.75,198.25 1.25,1.25 1.25,-1.25"
       id="path4606"
       inkscape:connector-curvature="0"
       sodipodi:nodetypes="ccc" />
    <path
       style="fill:none;fill-rule:evenodd;stroke:#ff00ff;stroke-width:0.2;stroke-linecap:butt;stroke-linejoin:miter;stroke-miterlimit:4;stroke-dasharray:none;stroke-opacity:1"
       d="m 205,194.5 v 5"
       id="path4608"
       inkscape:connector-curvature="0"
       sodipodi:nodetypes="cc" />
    <path
       style="fill:none;fill-rule:evenodd;stroke:#ff00ff;stroke-width:0.2;stroke-linecap:butt;stroke-linejoin:miter;stroke-miterlimit:4;stroke-dasharray:none;stroke-opacity:1"
       d="m 203.75,205.75 1.25,-1.25 1.25,1.25"
       id="path4610"
       inkscape:connector-curvature="0"
       sodipodi:nodetypes="ccc" />
    <path
       style="fill:none;fill-rule:evenodd;stroke:#ff00ff;stroke-width:0.2;stroke-linecap:butt;stroke-linejoin:miter;stroke-miterlimit:4;stroke-dasharray:none;stroke-opacity:1"
       d="m 205,204.5 v 5"
       id="path4612"
       inkscape:connector-curvature="0"
       sodipodi:nodetypes="cc" />
    <text
       id="text4620"
       y="200.9904"
       x="210.18156"
       style="font-style:normal;font-variant:normal;font-weight:normal;font-stretch:normal;font-size:3.52777767px;line-height:4px;font-family:sans-serif;-inkscape-font-specification:sans-serif;text-align:start;letter-spacing:0px;word-spacing:0px;text-anchor:start;fill:#ff00ff;fill-opacity:1;stroke:#ff00ff;stroke-width:0.02;stroke-linecap:butt;stroke-linejoin:miter;stroke-miterlimit:4;stroke-dasharray:none;stroke-opacity:1"
       xml:space="preserve"><tspan
         style="font-style:normal;font-variant:normal;font-weight:normal;font-stretch:normal;font-size:3.52777767px;line-height:4px;font-family:sans-serif;-inkscape-font-specification:sans-serif;text-align:start;letter-spacing:0px;text-anchor:start;fill:#ff00ff;stroke:#ff00ff;stroke-width:0.02;stroke-miterlimit:4;stroke-dasharray:none"
         y="200.9904"
         x="210.18156"
         sodipodi:role="line"
         id="tspan4622">adjust width to sign</tspan><tspan
         style="font-style:normal;font-variant:normal;font-weight:normal;font-stretch:normal;font-size:3.52777767px;line-height:4px;font-family:sans-serif;-inkscape-font-specification:sans-serif;text-align:start;letter-spacing:0px;text-anchor:start;fill:#ff00ff;stroke:#ff00ff;stroke-width:0.02;stroke-miterlimit:4;stroke-dasharray:none"
         y="204.9904"
         x="210.18156"
         sodipodi:role="line"
         id="tspan4626">thickness - kerf</tspan><tspan
         style="font-style:normal;font-variant:normal;font-weight:normal;font-stretch:normal;font-size:3.52777767px;line-height:4px;font-family:sans-serif;-inkscape-font-specification:sans-serif;text-align:start;letter-spacing:0px;text-anchor:start;fill:#ff00ff;stroke:#ff00ff;stroke-width:0.02;stroke-miterlimit:4;stroke-dasharray:none"
         y="208.9904"
         x="210.18156"
         sodipodi:role="line"
         id="tspan4618" /></text>
    <text
       id="text4632"
       y="230.25606"
       x="30.250181"
       style="font-style:normal;font-variant:normal;font-weight:normal;font-stretch:normal;font-size:4.23333311px;line-height:6px;font-family:sans-serif;-inkscape-font-specification:sans-serif;text-align:start;letter-spacing:0px;word-spacing:0px;text-anchor:start;fill:#ff00ff;fill-opacity:1;stroke:#ff00ff;stroke-width:0.05;stroke-linecap:butt;stroke-linejoin:miter;stroke-miterlimit:4;stroke-dasharray:none;stroke-opacity:1"
       xml:space="preserve"><tspan
         style="font-style:normal;font-variant:normal;font-weight:normal;font-stretch:normal;font-size:4.23333311px;line-height:6px;font-family:sans-serif;-inkscape-font-specification:sans-serif;text-align:start;letter-spacing:0px;text-anchor:start;fill:#ff00ff;stroke:#ff00ff;stroke-width:0.05;stroke-miterlimit:4;stroke-dasharray:none"
         y="230.25606"
         x="30.250181"
         sodipodi:role="line"
         id="tspan4628">Laser settings:</tspan><tspan
         style="font-style:normal;font-variant:normal;font-weight:normal;font-stretch:normal;font-size:4.23333311px;line-height:6px;font-family:sans-serif;-inkscape-font-specification:sans-serif;text-align:start;letter-spacing:0px;text-anchor:start;fill:#ff00ff;stroke:#ff00ff;stroke-width:0.05;stroke-miterlimit:4;stroke-dasharray:none"
         y="236.25606"
         x="30.250181"
         sodipodi:role="line"
         id="tspan4630" /></text>
    <text
       xml:space="preserve"
       style="font-style:normal;font-variant:normal;font-weight:normal;font-stretch:normal;font-size:3.52777767px;line-height:4px;font-family:sans-serif;-inkscape-font-specification:sans-serif;text-align:start;letter-spacing:0px;word-spacing:0px;text-anchor:start;fill:#ff00ff;fill-opacity:1;stroke:#ff00ff;stroke-width:0.02;stroke-linecap:butt;stroke-linejoin:miter;stroke-miterlimit:4;stroke-dasharray:none;stroke-opacity:1"
       x="30.319082"
       y="236.82089"
       id="text4640"
       inkscape:transform-center-x="-167.72824"
       inkscape:transform-center-y="-45.437218"><tspan
         id="tspan4636"
         sodipodi:role="line"
         x="30.319082"
         y="236.82089"
         style="font-style:normal;font-variant:normal;font-weight:normal;font-stretch:normal;font-size:3.52777767px;line-height:4px;font-family:sans-serif;-inkscape-font-specification:sans-serif;text-align:start;letter-spacing:0px;text-anchor:start;fill:#ff00ff;stroke:#ff00ff;stroke-width:0.02;stroke-miterlimit:4;stroke-dasharray:none">RED        engrave    speed 300,    scan gap 0.1mm,    power 33   (deep enough for cable)</tspan><tspan
         id="tspan4638"
         sodipodi:role="line"
         x="30.319082"
         y="240.82089"
         style="font-style:normal;font-variant:normal;font-weight:normal;font-stretch:normal;font-size:3.52777767px;line-height:4px;font-family:sans-serif;-inkscape-font-specification:sans-serif;text-align:start;letter-spacing:0px;text-anchor:start;fill:#ff00ff;stroke:#ff00ff;stroke-width:0.02;stroke-miterlimit:4;stroke-dasharray:none" /></text>
    <text
       inkscape:transform-center-y="-45.437218"
       inkscape:transform-center-x="-167.72824"
       id="text4648"
       y="242.533"
       x="30.319082"
       style="font-style:normal;font-variant:normal;font-weight:normal;font-stretch:normal;font-size:3.52777767px;line-height:4px;font-family:sans-serif;-inkscape-font-specification:sans-serif;text-align:start;letter-spacing:0px;word-spacing:0px;text-anchor:start;fill:#ff00ff;fill-opacity:1;stroke:#ff00ff;stroke-width:0.02;stroke-linecap:butt;stroke-linejoin:miter;stroke-miterlimit:4;stroke-dasharray:none;stroke-opacity:1"
       xml:space="preserve"><tspan
         style="font-style:normal;font-variant:normal;font-weight:normal;font-stretch:normal;font-size:3.52777767px;line-height:4px;font-family:sans-serif;-inkscape-font-specification:sans-serif;text-align:start;letter-spacing:0px;text-anchor:start;fill:#ff00ff;stroke:#ff00ff;stroke-width:0.02;stroke-miterlimit:4;stroke-dasharray:none"
         y="242.533"
         x="30.319082"
         sodipodi:role="line"
         id="tspan4644">BLUE      cut           speed 30,      power 33   (Herschey text)</tspan><tspan
         style="font-style:normal;font-variant:normal;font-weight:normal;font-stretch:normal;font-size:3.52777767px;line-height:4px;font-family:sans-serif;-inkscape-font-specification:sans-serif;text-align:start;letter-spacing:0px;text-anchor:start;fill:#ff00ff;stroke:#ff00ff;stroke-width:0.02;stroke-miterlimit:4;stroke-dasharray:none"
         y="246.533"
         x="30.319082"
         sodipodi:role="line"
         id="tspan4646" /></text>
    <text
       xml:space="preserve"
       style="font-style:normal;font-variant:normal;font-weight:normal;font-stretch:normal;font-size:3.52777767px;line-height:4px;font-family:sans-serif;-inkscape-font-specification:sans-serif;text-align:start;letter-spacing:0px;word-spacing:0px;text-anchor:start;fill:#ff00ff;fill-opacity:1;stroke:#ff00ff;stroke-width:0.02;stroke-linecap:butt;stroke-linejoin:miter;stroke-miterlimit:4;stroke-dasharray:none;stroke-opacity:1"
       x="30.319082"
       y="248.50476"
       id="text4654"
       inkscape:transform-center-x="-167.72824"
       inkscape:transform-center-y="-45.437218"><tspan
         id="tspan4650"
         sodipodi:role="line"
         x="30.319082"
         y="248.50476"
         style="font-style:normal;font-variant:normal;font-weight:normal;font-stretch:normal;font-size:3.52777767px;line-height:4px;font-family:sans-serif;-inkscape-font-specification:sans-serif;text-align:start;letter-spacing:0px;text-anchor:start;fill:#ff00ff;stroke:#ff00ff;stroke-width:0.02;stroke-miterlimit:4;stroke-dasharray:none">BLACK    cut           speed 11,      power 100%</tspan><tspan
         id="tspan4652"
         sodipodi:role="line"
         x="30.319082"
         y="252.50476"
         style="font-style:normal;font-variant:normal;font-weight:normal;font-stretch:normal;font-size:3.52777767px;line-height:4px;font-family:sans-serif;-inkscape-font-specification:sans-serif;text-align:start;letter-spacing:0px;text-anchor:start;fill:#ff00ff;stroke:#ff00ff;stroke-width:0.02;stroke-miterlimit:4;stroke-dasharray:none" /></text>
    <text
       inkscape:transform-center-y="-45.437218"
       inkscape:transform-center-x="-167.72824"
       id="text4660"
       y="253.95723"
       x="30.319082"
       style="font-style:normal;font-variant:normal;font-weight:normal;font-stretch:normal;font-size:3.52777767px;line-height:4px;font-family:sans-serif;-inkscape-font-specification:sans-serif;text-align:start;letter-spacing:0px;word-spacing:0px;text-anchor:start;fill:#ff00ff;fill-opacity:1;stroke:#ff00ff;stroke-width:0.02;stroke-linecap:butt;stroke-linejoin:miter;stroke-miterlimit:4;stroke-dasharray:none;stroke-opacity:1"
       xml:space="preserve"><tspan
         style="font-style:normal;font-variant:normal;font-weight:normal;font-stretch:normal;font-size:3.52777767px;line-height:4px;font-family:sans-serif;-inkscape-font-specification:sans-serif;text-align:start;letter-spacing:0px;text-anchor:start;fill:#ff00ff;stroke:#ff00ff;stroke-width:0.02;stroke-miterlimit:4;stroke-dasharray:none"
         y="253.95723"
         x="30.319082"
         sodipodi:role="line"
         id="tspan4656">PURPLE   de-select    speed 300,    scan gap 0.1mm,    power 33</tspan><tspan
         style="font-style:normal;font-variant:normal;font-weight:normal;font-stretch:normal;font-size:3.52777767px;line-height:4px;font-family:sans-serif;-inkscape-font-specification:sans-serif;text-align:start;letter-spacing:0px;text-anchor:start;fill:#ff00ff;stroke:#ff00ff;stroke-width:0.02;stroke-miterlimit:4;stroke-dasharray:none"
         y="257.95724"
         x="30.319082"
         sodipodi:role="line"
         id="tspan4658" /></text>
    <text
       inkscape:transform-center-y="-45.437218"
       inkscape:transform-center-x="-167.72824"
       id="text4668"
       y="263.5639"
       x="30.319082"
       style="font-style:normal;font-variant:normal;font-weight:normal;font-stretch:normal;font-size:3.52777767px;line-height:4px;font-family:sans-serif;-inkscape-font-specification:sans-serif;text-align:start;letter-spacing:0px;word-spacing:0px;text-anchor:start;fill:#ff00ff;fill-opacity:1;stroke:#ff00ff;stroke-width:0.02;stroke-linecap:butt;stroke-linejoin:miter;stroke-miterlimit:4;stroke-dasharray:none;stroke-opacity:1"
       xml:space="preserve"><tspan
         style="font-style:normal;font-variant:normal;font-weight:normal;font-stretch:normal;font-size:3.52777767px;line-height:4px;font-family:sans-serif;-inkscape-font-specification:sans-serif;text-align:start;letter-spacing:0px;text-anchor:start;fill:#ff00ff;stroke:#ff00ff;stroke-width:0.02;stroke-miterlimit:4;stroke-dasharray:none"
         y="263.5639"
         x="30.319082"
         sodipodi:role="line"
         id="tspan4670">Convert objects to path before export to DXF (this makes length adjustment easier)</tspan><tspan
         style="font-style:normal;font-variant:normal;font-weight:normal;font-stretch:normal;font-size:3.52777767px;line-height:4px;font-family:sans-serif;-inkscape-font-specification:sans-serif;text-align:start;letter-spacing:0px;text-anchor:start;fill:#ff00ff;stroke:#ff00ff;stroke-width:0.02;stroke-miterlimit:4;stroke-dasharray:none"
         y="267.5639"
         x="30.319082"
         sodipodi:role="line"
         id="tspan4666" /></text>
  </g>
</svg>
