<?xml version="1.0" encoding="UTF-8" standalone="no"?>
<!-- Created with Inkscape (http://www.inkscape.org/) -->

<svg
   xmlns:dc="http://purl.org/dc/elements/1.1/"
   xmlns:cc="http://creativecommons.org/ns#"
   xmlns:rdf="http://www.w3.org/1999/02/22-rdf-syntax-ns#"
   xmlns:svg="http://www.w3.org/2000/svg"
   xmlns="http://www.w3.org/2000/svg"
   xmlns:sodipodi="http://sodipodi.sourceforge.net/DTD/sodipodi-0.dtd"
   xmlns:inkscape="http://www.inkscape.org/namespaces/inkscape"
   width="297mm"
   height="210mm"
   viewBox="0 0 297 210"
   version="1.1"
   id="svg3710"
   inkscape:version="0.92.4 (5da689c313, 2019-01-14)"
   sodipodi:docname="sign_base_wood_150mm.svg">
  <sodipodi:namedview
     id="base"
     pagecolor="#ffffff"
     bordercolor="#666666"
     borderopacity="1.0"
     inkscape:pageopacity="0.0"
     inkscape:pageshadow="2"
     inkscape:zoom="1.1024306"
     inkscape:cx="272.45225"
     inkscape:cy="433.27414"
     inkscape:document-units="mm"
     inkscape:current-layer="layer1"
     showgrid="true"
     inkscape:window-width="1920"
     inkscape:window-height="1027"
     inkscape:window-x="-8"
     inkscape:window-y="-8"
     inkscape:window-maximized="1">
    <inkscape:grid
       type="xygrid"
       id="grid970" />
  </sodipodi:namedview>
  <defs
     id="defs3704" />
  <metadata
     id="metadata3707">
    <rdf:RDF>
      <cc:Work
         rdf:about="">
        <dc:format>image/svg+xml</dc:format>
        <dc:type
           rdf:resource="http://purl.org/dc/dcmitype/StillImage" />
        <dc:title />
      </cc:Work>
    </rdf:RDF>
  </metadata>
  <g
     inkscape:label="Layer 1"
     inkscape:groupmode="layer"
     id="layer1"
     transform="translate(0,-87)">
    <path
       style="opacity:1;fill:none;fill-opacity:1;stroke:#000000;stroke-width:0.10000001;stroke-linejoin:miter;stroke-miterlimit:4;stroke-dasharray:none;stroke-opacity:1"
       d="M -195.00001,117.00001 H -34.999992 C -32.229997,117.00001 -30,119.23 -30,122 v 20.00002 c 0,2.76999 -2.229997,4.99999 -4.999992,4.99999 H -195.00001 c -2.76999,0 -4.99999,-2.23 -4.99999,-4.99999 V 122 c 0,-2.77 2.23,-4.99999 4.99999,-4.99999 z"
       id="rect1993"
       inkscape:connector-curvature="0"
       transform="scale(-1,1)" />
    <path
       style="opacity:1;fill:none;fill-opacity:1;stroke:#000000;stroke-width:0.1;stroke-linejoin:miter;stroke-miterlimit:4;stroke-dasharray:none;stroke-opacity:1"
       d="M 189.99986,134.49994 H 40.000229 v -4.99969 H 189.99986 Z"
       id="rect1995"
       inkscape:connector-curvature="0"
       sodipodi:nodetypes="ccccc" />
    <path
       transform="scale(-1)"
       style="opacity:1;fill:none;fill-opacity:1;stroke:#000000;stroke-width:0.10000001;stroke-linejoin:miter;stroke-miterlimit:4;stroke-dasharray:none;stroke-opacity:1"
       d="m -195.00001,-182 h 160.000018 c 2.769995,0 4.999992,2.23 4.999992,4.99999 v 20.00002 c 0,2.77 -2.229997,4.99999 -4.999992,4.99999 H -195.00001 C -197.77,-152 -200,-154.22999 -200,-156.99999 v -20.00002 c 0,-2.76999 2.23,-4.99999 4.99999,-4.99999 z"
       id="rect1132"
       inkscape:connector-curvature="0" />
    <path
       style="opacity:1;fill:none;fill-opacity:1;stroke:#000000;stroke-width:0.1;stroke-linejoin:miter;stroke-miterlimit:4;stroke-dasharray:none;stroke-opacity:1"
       d="M 189.99986,164.50006 H 40.00023 v 4.99969 L 190,169.49987 Z"
       id="path1134"
       inkscape:connector-curvature="0"
       sodipodi:nodetypes="ccccc" />
    <path
       transform="scale(-1)"
       style="opacity:1;fill:none;fill-opacity:1;fill-rule:evenodd;stroke:#000000;stroke-width:0.10365625;stroke-linecap:square;stroke-linejoin:miter;stroke-miterlimit:4;stroke-dasharray:none;stroke-opacity:1"
       d="m -186.45,-157 a 1.55,1.55 0 0 1 -1.55,1.55 1.55,1.55 0 0 1 -1.55,-1.55 1.55,1.55 0 0 1 1.55,-1.55 1.55,1.55 0 0 1 1.55,1.55 z"
       id="circle1136"
       inkscape:connector-curvature="0" />
    <path
       transform="scale(-1)"
       style="opacity:1;fill:none;fill-opacity:1;fill-rule:evenodd;stroke:#000000;stroke-width:0.1033333;stroke-linecap:square;stroke-linejoin:miter;stroke-miterlimit:4;stroke-dasharray:none;stroke-opacity:1"
       d="m -186.45,-177 a 1.55,1.55 0 0 1 -1.55,1.55 1.55,1.55 0 0 1 -1.55,-1.55 1.55,1.55 0 0 1 1.55,-1.55 1.55,1.55 0 0 1 1.55,1.55 z"
       id="circle1138"
       inkscape:connector-curvature="0" />
    <path
       transform="scale(-1)"
       style="opacity:1;fill:none;fill-opacity:1;fill-rule:evenodd;stroke:#000000;stroke-width:0.1033333;stroke-linecap:square;stroke-linejoin:miter;stroke-miterlimit:4;stroke-dasharray:none;stroke-opacity:1"
       d="m -168.45,-177 a 1.55,1.55 0 0 1 -1.55,1.55 1.55,1.55 0 0 1 -1.55,-1.55 1.55,1.55 0 0 1 1.55,-1.55 1.55,1.55 0 0 1 1.55,1.55 z"
       id="circle1140"
       inkscape:connector-curvature="0" />
    <path
       transform="scale(-1)"
       style="opacity:1;fill:none;fill-opacity:1;fill-rule:evenodd;stroke:#000000;stroke-width:0.1033333;stroke-linecap:square;stroke-linejoin:miter;stroke-miterlimit:4;stroke-dasharray:none;stroke-opacity:1"
       d="m -40.45,-177 a 1.55,1.55 0 0 1 -1.55,1.55 1.55,1.55 0 0 1 -1.55,-1.55 1.55,1.55 0 0 1 1.55,-1.55 1.55,1.55 0 0 1 1.55,1.55 z"
       id="circle1142"
       inkscape:connector-curvature="0" />
    <path
       transform="scale(-1)"
       style="opacity:1;fill:none;fill-opacity:1;fill-rule:evenodd;stroke:#000000;stroke-width:0.1033333;stroke-linecap:square;stroke-linejoin:miter;stroke-miterlimit:4;stroke-dasharray:none;stroke-opacity:1"
       d="m -40.45,-157 a 1.55,1.55 0 0 1 -1.55,1.55 1.55,1.55 0 0 1 -1.55,-1.55 1.55,1.55 0 0 1 1.55,-1.55 1.55,1.55 0 0 1 1.55,1.55 z"
       id="circle1144"
       inkscape:connector-curvature="0" />
    <path
       transform="scale(-1,1)"
       style="opacity:1;fill:none;fill-opacity:1;stroke:#000000;stroke-width:0.10000001;stroke-linejoin:miter;stroke-miterlimit:4;stroke-dasharray:none;stroke-opacity:1"
       d="M -195.00001,187 H -34.999992 C -32.229997,187 -30,189.23 -30,191.99999 v 20.00002 c 0,2.77 -2.229997,4.99999 -4.999992,4.99999 H -195.00001 C -197.77,217 -200,214.77001 -200,212.00001 V 191.99999 C -200,189.23 -197.77,187 -195.00001,187 Z"
       id="rect1146"
       inkscape:connector-curvature="0" />
    <path
       style="opacity:1;fill:none;fill-opacity:1;stroke:#ff0000;stroke-width:0.1;stroke-linejoin:miter;stroke-miterlimit:4;stroke-dasharray:none;stroke-opacity:1"
       d="m 189.99986,199.50011 v 4.99969 l -8.59999,8.60608 v 3.89394 h -4.79971 v -3.96168 L 168,204.4998 H 40.000229 v -4.99969 z"
       id="path1148"
       inkscape:connector-curvature="0"
       sodipodi:nodetypes="cccccccccc" />
    <path
       transform="scale(-1,1)"
       style="opacity:1;fill:none;fill-opacity:1;fill-rule:evenodd;stroke:#000000;stroke-width:0.09671872;stroke-linecap:square;stroke-linejoin:miter;stroke-miterlimit:4;stroke-dasharray:none;stroke-opacity:1"
       d="M -186.54922,212 A 1.4507812,1.4507812 0 0 1 -188,213.45078 1.4507812,1.4507812 0 0 1 -189.45078,212 1.4507812,1.4507812 0 0 1 -188,210.54922 1.4507812,1.4507812 0 0 1 -186.54922,212 Z"
       id="circle1150"
       inkscape:connector-curvature="0" />
    <path
       transform="scale(-1,1)"
       style="opacity:1;fill:none;fill-opacity:1;fill-rule:evenodd;stroke:#000000;stroke-width:0.09671872;stroke-linecap:square;stroke-linejoin:miter;stroke-miterlimit:4;stroke-dasharray:none;stroke-opacity:1"
       d="M -186.54922,192 A 1.4507812,1.4507812 0 0 1 -188,193.45078 1.4507812,1.4507812 0 0 1 -189.45078,192 1.4507812,1.4507812 0 0 1 -188,190.54922 1.4507812,1.4507812 0 0 1 -186.54922,192 Z"
       id="circle1152"
       inkscape:connector-curvature="0" />
    <path
       transform="scale(-1,1)"
       style="opacity:1;fill:none;fill-opacity:1;fill-rule:evenodd;stroke:#000000;stroke-width:0.09670725;stroke-linecap:square;stroke-linejoin:miter;stroke-miterlimit:4;stroke-dasharray:none;stroke-opacity:1"
       d="M -168.54939,212 A 1.4506091,1.4506091 0 0 1 -170,213.45061 1.4506091,1.4506091 0 0 1 -171.45061,212 1.4506091,1.4506091 0 0 1 -170,210.54939 1.4506091,1.4506091 0 0 1 -168.54939,212 Z"
       id="circle1154"
       inkscape:connector-curvature="0" />
    <path
       transform="scale(-1,1)"
       style="opacity:1;fill:none;fill-opacity:1;fill-rule:evenodd;stroke:#000000;stroke-width:0.09670725;stroke-linecap:square;stroke-linejoin:miter;stroke-miterlimit:4;stroke-dasharray:none;stroke-opacity:1"
       d="M -40.549391,192 A 1.4506091,1.4506091 0 0 1 -42,193.45061 1.4506091,1.4506091 0 0 1 -43.450609,192 1.4506091,1.4506091 0 0 1 -42,190.54939 1.4506091,1.4506091 0 0 1 -40.549391,192 Z"
       id="circle1156"
       inkscape:connector-curvature="0" />
    <path
       transform="scale(-1,1)"
       style="opacity:1;fill:none;fill-opacity:1;fill-rule:evenodd;stroke:#000000;stroke-width:0.09670725;stroke-linecap:square;stroke-linejoin:miter;stroke-miterlimit:4;stroke-dasharray:none;stroke-opacity:1"
       d="M -40.549391,212 A 1.4506091,1.4506091 0 0 1 -42,213.45061 1.4506091,1.4506091 0 0 1 -43.450609,212 1.4506091,1.4506091 0 0 1 -42,210.54939 1.4506091,1.4506091 0 0 1 -40.549391,212 Z"
       id="circle1158"
       inkscape:connector-curvature="0" />
    <path
       style="color:#000000;font-style:normal;font-variant:normal;font-weight:normal;font-stretch:normal;font-size:medium;line-height:normal;font-family:sans-serif;font-variant-ligatures:normal;font-variant-position:normal;font-variant-caps:normal;font-variant-numeric:normal;font-variant-alternates:normal;font-feature-settings:normal;text-indent:0;text-align:start;text-decoration:none;text-decoration-line:none;text-decoration-style:solid;text-decoration-color:#000000;letter-spacing:normal;word-spacing:normal;text-transform:none;writing-mode:lr-tb;direction:ltr;text-orientation:mixed;dominant-baseline:auto;baseline-shift:baseline;text-anchor:start;white-space:normal;shape-padding:0;clip-rule:nonzero;display:inline;overflow:visible;visibility:visible;opacity:1;isolation:auto;mix-blend-mode:normal;color-interpolation:sRGB;color-interpolation-filters:linearRGB;solid-color:#000000;solid-opacity:1;vector-effect:none;fill:none;fill-opacity:1;fill-rule:evenodd;stroke:#ff0000;stroke-width:0.1;stroke-linecap:square;stroke-linejoin:round;stroke-miterlimit:4;stroke-dasharray:none;stroke-dashoffset:0;stroke-opacity:1;color-rendering:auto;image-rendering:auto;shape-rendering:auto;text-rendering:auto;enable-background:accumulate"
       d="m 188.01758,118.82617 a 0.10001,0.10001 0 0 1 0.0312,0.0117 l 1.33789,0.75781 a 0.10001,0.10001 0 0 1 0.002,0.002 l 1.32422,0.77929 a 0.10001,0.10001 0 0 1 0.0508,0.084 l 0.0117,1.53906 -0.0117,1.53906 a 0.10001,0.10001 0 0 1 -0.0508,0.084 l -1.32422,0.77929 a 0.10001,0.10001 0 0 1 -0.002,0.002 l -1.33789,0.75781 a 0.10001,0.10001 0 0 1 -0.0977,0 l -1.33789,-0.75781 a 0.10001,0.10001 0 0 1 -0.002,-0.002 l -1.32422,-0.77929 a 0.10001,0.10001 0 0 1 -0.0508,-0.084 l -0.0117,-1.53906 0.0117,-1.53906 a 0.10001,0.10001 0 0 1 0.0508,-0.084 l 1.32422,-0.77929 a 0.10001,0.10001 0 0 1 0.002,-0.002 l 1.33789,-0.75781 a 0.10001,0.10001 0 0 1 0.0664,-0.0117 z"
       id="path1001"
       inkscape:connector-curvature="0" />
    <path
       style="color:#000000;font-style:normal;font-variant:normal;font-weight:normal;font-stretch:normal;font-size:medium;line-height:normal;font-family:sans-serif;font-variant-ligatures:normal;font-variant-position:normal;font-variant-caps:normal;font-variant-numeric:normal;font-variant-alternates:normal;font-feature-settings:normal;text-indent:0;text-align:start;text-decoration:none;text-decoration-line:none;text-decoration-style:solid;text-decoration-color:#000000;letter-spacing:normal;word-spacing:normal;text-transform:none;writing-mode:lr-tb;direction:ltr;text-orientation:mixed;dominant-baseline:auto;baseline-shift:baseline;text-anchor:start;white-space:normal;shape-padding:0;clip-rule:nonzero;display:inline;overflow:visible;visibility:visible;opacity:1;isolation:auto;mix-blend-mode:normal;color-interpolation:sRGB;color-interpolation-filters:linearRGB;solid-color:#000000;solid-opacity:1;vector-effect:none;fill:none;fill-opacity:1;fill-rule:evenodd;stroke:#ff0000;stroke-width:0.1;stroke-linecap:square;stroke-linejoin:round;stroke-miterlimit:4;stroke-dasharray:none;stroke-dashoffset:0;stroke-opacity:1;color-rendering:auto;image-rendering:auto;shape-rendering:auto;text-rendering:auto;enable-background:accumulate"
       d="m 42.017578,118.82617 a 0.10001,0.10001 0 0 1 0.03125,0.0117 l 1.337891,0.75781 a 0.10001,0.10001 0 0 1 0.002,0.002 l 1.324219,0.77929 a 0.10001,0.10001 0 0 1 0.05078,0.084 l 0.01172,1.53906 -0.01172,1.53906 a 0.10001,0.10001 0 0 1 -0.05078,0.084 l -1.324219,0.77929 a 0.10001,0.10001 0 0 1 -0.002,0.002 l -1.337891,0.75781 a 0.10001,0.10001 0 0 1 -0.09766,0 l -1.337891,-0.75781 a 0.10001,0.10001 0 0 1 -0.002,-0.002 l -1.324219,-0.77929 a 0.10001,0.10001 0 0 1 -0.05078,-0.084 l -0.01172,-1.53906 0.01172,-1.53906 a 0.10001,0.10001 0 0 1 0.05078,-0.084 l 1.324219,-0.77929 a 0.10001,0.10001 0 0 1 0.002,-0.002 l 1.337891,-0.75781 a 0.10001,0.10001 0 0 1 0.06641,-0.0117 z"
       id="path989"
       inkscape:connector-curvature="0" />
    <path
       style="color:#000000;font-style:normal;font-variant:normal;font-weight:normal;font-stretch:normal;font-size:medium;line-height:normal;font-family:sans-serif;font-variant-ligatures:normal;font-variant-position:normal;font-variant-caps:normal;font-variant-numeric:normal;font-variant-alternates:normal;font-feature-settings:normal;text-indent:0;text-align:start;text-decoration:none;text-decoration-line:none;text-decoration-style:solid;text-decoration-color:#000000;letter-spacing:normal;word-spacing:normal;text-transform:none;writing-mode:lr-tb;direction:ltr;text-orientation:mixed;dominant-baseline:auto;baseline-shift:baseline;text-anchor:start;white-space:normal;shape-padding:0;clip-rule:nonzero;display:inline;overflow:visible;visibility:visible;opacity:1;isolation:auto;mix-blend-mode:normal;color-interpolation:sRGB;color-interpolation-filters:linearRGB;solid-color:#000000;solid-opacity:1;vector-effect:none;fill:none;fill-opacity:1;fill-rule:evenodd;stroke:#ff0000;stroke-width:0.1;stroke-linecap:square;stroke-linejoin:round;stroke-miterlimit:4;stroke-dasharray:none;stroke-dashoffset:0;stroke-opacity:1;color-rendering:auto;image-rendering:auto;shape-rendering:auto;text-rendering:auto;enable-background:accumulate"
       d="m 42.017578,138.82617 a 0.10001,0.10001 0 0 1 0.03125,0.0117 l 1.337891,0.75781 a 0.10001,0.10001 0 0 1 0.002,0.002 l 1.324219,0.77929 a 0.10001,0.10001 0 0 1 0.05078,0.084 l 0.01172,1.53906 -0.01172,1.53906 a 0.10001,0.10001 0 0 1 -0.05078,0.084 l -1.324219,0.77929 a 0.10001,0.10001 0 0 1 -0.002,0.002 l -1.337891,0.75781 a 0.10001,0.10001 0 0 1 -0.09766,0 l -1.337891,-0.75781 a 0.10001,0.10001 0 0 1 -0.002,-0.002 l -1.324219,-0.77929 a 0.10001,0.10001 0 0 1 -0.05078,-0.084 l -0.01172,-1.53906 0.01172,-1.53906 a 0.10001,0.10001 0 0 1 0.05078,-0.084 l 1.324219,-0.77929 a 0.10001,0.10001 0 0 1 0.002,-0.002 l 1.337891,-0.75781 a 0.10001,0.10001 0 0 1 0.06641,-0.0117 z"
       id="path1013"
       inkscape:connector-curvature="0" />
    <path
       style="color:#000000;font-style:normal;font-variant:normal;font-weight:normal;font-stretch:normal;font-size:medium;line-height:normal;font-family:sans-serif;font-variant-ligatures:normal;font-variant-position:normal;font-variant-caps:normal;font-variant-numeric:normal;font-variant-alternates:normal;font-feature-settings:normal;text-indent:0;text-align:start;text-decoration:none;text-decoration-line:none;text-decoration-style:solid;text-decoration-color:#000000;letter-spacing:normal;word-spacing:normal;text-transform:none;writing-mode:lr-tb;direction:ltr;text-orientation:mixed;dominant-baseline:auto;baseline-shift:baseline;text-anchor:start;white-space:normal;shape-padding:0;clip-rule:nonzero;display:inline;overflow:visible;visibility:visible;opacity:1;isolation:auto;mix-blend-mode:normal;color-interpolation:sRGB;color-interpolation-filters:linearRGB;solid-color:#000000;solid-opacity:1;vector-effect:none;fill:none;fill-opacity:1;fill-rule:evenodd;stroke:#ff0000;stroke-width:0.1;stroke-linecap:square;stroke-linejoin:round;stroke-miterlimit:4;stroke-dasharray:none;stroke-dashoffset:0;stroke-opacity:1;color-rendering:auto;image-rendering:auto;shape-rendering:auto;text-rendering:auto;enable-background:accumulate"
       d="m 188.01758,138.82617 a 0.10001,0.10001 0 0 1 0.0312,0.0117 l 1.33789,0.75781 a 0.10001,0.10001 0 0 1 0.002,0.002 l 1.32422,0.77929 a 0.10001,0.10001 0 0 1 0.0508,0.084 l 0.0117,1.53906 -0.0117,1.53906 a 0.10001,0.10001 0 0 1 -0.0508,0.084 l -1.32422,0.77929 a 0.10001,0.10001 0 0 1 -0.002,0.002 l -1.33789,0.75781 a 0.10001,0.10001 0 0 1 -0.0977,0 l -1.33789,-0.75781 a 0.10001,0.10001 0 0 1 -0.002,-0.002 l -1.32422,-0.77929 a 0.10001,0.10001 0 0 1 -0.0508,-0.084 l -0.0117,-1.53906 0.0117,-1.53906 a 0.10001,0.10001 0 0 1 0.0508,-0.084 l 1.32422,-0.77929 a 0.10001,0.10001 0 0 1 0.002,-0.002 l 1.33789,-0.75781 a 0.10001,0.10001 0 0 1 0.0664,-0.0117 z"
       id="path1005"
       inkscape:connector-curvature="0" />
    <path
       style="color:#000000;font-style:normal;font-variant:normal;font-weight:normal;font-stretch:normal;font-size:medium;line-height:normal;font-family:sans-serif;font-variant-ligatures:normal;font-variant-position:normal;font-variant-caps:normal;font-variant-numeric:normal;font-variant-alternates:normal;font-feature-settings:normal;text-indent:0;text-align:start;text-decoration:none;text-decoration-line:none;text-decoration-style:solid;text-decoration-color:#000000;letter-spacing:normal;word-spacing:normal;text-transform:none;writing-mode:lr-tb;direction:ltr;text-orientation:mixed;dominant-baseline:auto;baseline-shift:baseline;text-anchor:start;white-space:normal;shape-padding:0;clip-rule:nonzero;display:inline;overflow:visible;visibility:visible;opacity:1;isolation:auto;mix-blend-mode:normal;color-interpolation:sRGB;color-interpolation-filters:linearRGB;solid-color:#000000;solid-opacity:1;vector-effect:none;fill:none;fill-opacity:1;fill-rule:evenodd;stroke:#ff0000;stroke-width:0.1;stroke-linecap:square;stroke-linejoin:round;stroke-miterlimit:4;stroke-dasharray:none;stroke-dashoffset:0;stroke-opacity:1;color-rendering:auto;image-rendering:auto;shape-rendering:auto;text-rendering:auto;enable-background:accumulate"
       d="m 170.01758,118.82617 a 0.10001,0.10001 0 0 1 0.0312,0.0117 l 1.33789,0.75781 a 0.10001,0.10001 0 0 1 0.002,0.002 l 1.32422,0.77929 a 0.10001,0.10001 0 0 1 0.0508,0.084 l 0.0117,1.53906 -0.0117,1.53906 a 0.10001,0.10001 0 0 1 -0.0508,0.084 l -1.32422,0.77929 a 0.10001,0.10001 0 0 1 -0.002,0.002 l -1.33789,0.75781 a 0.10001,0.10001 0 0 1 -0.0977,0 l -1.33789,-0.75781 a 0.10001,0.10001 0 0 1 -0.002,-0.002 l -1.32422,-0.77929 a 0.10001,0.10001 0 0 1 -0.0508,-0.084 l -0.0117,-1.53906 0.0117,-1.53906 a 0.10001,0.10001 0 0 1 0.0508,-0.084 l 1.32422,-0.77929 a 0.10001,0.10001 0 0 1 0.002,-0.002 l 1.33789,-0.75781 a 0.10001,0.10001 0 0 1 0.0664,-0.0117 z"
       id="path997"
       inkscape:connector-curvature="0" />
    <text
       xml:space="preserve"
       style="font-style:normal;font-variant:normal;font-weight:bold;font-stretch:normal;font-size:3.52777767px;line-height:52.91666412px;font-family:sans-serif;-inkscape-font-specification:'sans-serif Bold';text-align:center;letter-spacing:0.69850004px;word-spacing:0px;text-anchor:middle;fill:#000000;fill-opacity:1;stroke:none;stroke-width:0.26458332px;stroke-linecap:butt;stroke-linejoin:miter;stroke-opacity:1"
       x="206"
       y="134"
       id="text896"><tspan
         sodipodi:role="line"
         id="tspan894"
         x="206"
         y="161.47197"
         style="stroke-width:0.26458332px" /></text>
    <path
       style="color:#000000;font-style:normal;font-variant:normal;font-weight:normal;font-stretch:normal;font-size:medium;line-height:normal;font-family:sans-serif;font-variant-ligatures:normal;font-variant-position:normal;font-variant-caps:normal;font-variant-numeric:normal;font-variant-alternates:normal;font-feature-settings:normal;text-indent:0;text-align:start;text-decoration:none;text-decoration-line:none;text-decoration-style:solid;text-decoration-color:#000000;letter-spacing:normal;word-spacing:normal;text-transform:none;writing-mode:lr-tb;direction:ltr;text-orientation:mixed;dominant-baseline:auto;baseline-shift:baseline;text-anchor:start;white-space:normal;shape-padding:0;clip-rule:nonzero;display:inline;overflow:visible;visibility:visible;opacity:1;isolation:auto;mix-blend-mode:normal;color-interpolation:sRGB;color-interpolation-filters:linearRGB;solid-color:#000000;solid-opacity:1;vector-effect:none;fill:none;fill-opacity:1;fill-rule:evenodd;stroke:#ff0000;stroke-width:0.1;stroke-linecap:square;stroke-linejoin:round;stroke-miterlimit:4;stroke-dasharray:none;stroke-dashoffset:0;stroke-opacity:1;color-rendering:auto;image-rendering:auto;shape-rendering:auto;text-rendering:auto;enable-background:accumulate"
       d="m 188.01758,153.82617 a 0.10001,0.10001 0 0 1 0.0312,0.0117 l 1.33789,0.75781 a 0.10001,0.10001 0 0 1 0.002,0.002 l 1.32422,0.77929 a 0.10001,0.10001 0 0 1 0.0508,0.084 l 0.0117,1.53906 -0.0117,1.53906 a 0.10001,0.10001 0 0 1 -0.0508,0.084 l -1.32422,0.77929 a 0.10001,0.10001 0 0 1 -0.002,0.002 l -1.33789,0.75781 a 0.10001,0.10001 0 0 1 -0.0977,0 l -1.33789,-0.75781 a 0.10001,0.10001 0 0 1 -0.002,-0.002 l -1.32422,-0.77929 a 0.10001,0.10001 0 0 1 -0.0508,-0.084 l -0.0117,-1.53906 0.0117,-1.53906 a 0.10001,0.10001 0 0 1 0.0508,-0.084 l 1.32422,-0.77929 a 0.10001,0.10001 0 0 1 0.002,-0.002 l 1.33789,-0.75781 a 0.10001,0.10001 0 0 1 0.0664,-0.0117 z"
       id="path1033"
       inkscape:connector-curvature="0" />
    <path
       style="color:#000000;font-style:normal;font-variant:normal;font-weight:normal;font-stretch:normal;font-size:medium;line-height:normal;font-family:sans-serif;font-variant-ligatures:normal;font-variant-position:normal;font-variant-caps:normal;font-variant-numeric:normal;font-variant-alternates:normal;font-feature-settings:normal;text-indent:0;text-align:start;text-decoration:none;text-decoration-line:none;text-decoration-style:solid;text-decoration-color:#000000;letter-spacing:normal;word-spacing:normal;text-transform:none;writing-mode:lr-tb;direction:ltr;text-orientation:mixed;dominant-baseline:auto;baseline-shift:baseline;text-anchor:start;white-space:normal;shape-padding:0;clip-rule:nonzero;display:inline;overflow:visible;visibility:visible;opacity:1;isolation:auto;mix-blend-mode:normal;color-interpolation:sRGB;color-interpolation-filters:linearRGB;solid-color:#000000;solid-opacity:1;vector-effect:none;fill:none;fill-opacity:1;fill-rule:evenodd;stroke:#ff0000;stroke-width:0.1;stroke-linecap:square;stroke-linejoin:round;stroke-miterlimit:4;stroke-dasharray:none;stroke-dashoffset:0;stroke-opacity:1;color-rendering:auto;image-rendering:auto;shape-rendering:auto;text-rendering:auto;enable-background:accumulate"
       d="m 42.017578,153.82617 a 0.10001,0.10001 0 0 1 0.03125,0.0117 l 1.337891,0.75781 a 0.10001,0.10001 0 0 1 0.002,0.002 l 1.324219,0.77929 a 0.10001,0.10001 0 0 1 0.05078,0.084 l 0.01172,1.53906 -0.01172,1.53906 a 0.10001,0.10001 0 0 1 -0.05078,0.084 l -1.324219,0.77929 a 0.10001,0.10001 0 0 1 -0.002,0.002 l -1.337891,0.75781 a 0.10001,0.10001 0 0 1 -0.09766,0 l -1.337891,-0.75781 a 0.10001,0.10001 0 0 1 -0.002,-0.002 l -1.324219,-0.77929 a 0.10001,0.10001 0 0 1 -0.05078,-0.084 l -0.01172,-1.53906 0.01172,-1.53906 a 0.10001,0.10001 0 0 1 0.05078,-0.084 l 1.324219,-0.77929 a 0.10001,0.10001 0 0 1 0.002,-0.002 l 1.337891,-0.75781 a 0.10001,0.10001 0 0 1 0.06641,-0.0117 z"
       id="path1017"
       inkscape:connector-curvature="0" />
    <path
       style="color:#000000;font-style:normal;font-variant:normal;font-weight:normal;font-stretch:normal;font-size:medium;line-height:normal;font-family:sans-serif;font-variant-ligatures:normal;font-variant-position:normal;font-variant-caps:normal;font-variant-numeric:normal;font-variant-alternates:normal;font-feature-settings:normal;text-indent:0;text-align:start;text-decoration:none;text-decoration-line:none;text-decoration-style:solid;text-decoration-color:#000000;letter-spacing:normal;word-spacing:normal;text-transform:none;writing-mode:lr-tb;direction:ltr;text-orientation:mixed;dominant-baseline:auto;baseline-shift:baseline;text-anchor:start;white-space:normal;shape-padding:0;clip-rule:nonzero;display:inline;overflow:visible;visibility:visible;opacity:1;isolation:auto;mix-blend-mode:normal;color-interpolation:sRGB;color-interpolation-filters:linearRGB;solid-color:#000000;solid-opacity:1;vector-effect:none;fill:none;fill-opacity:1;fill-rule:evenodd;stroke:#ff0000;stroke-width:0.1;stroke-linecap:square;stroke-linejoin:round;stroke-miterlimit:4;stroke-dasharray:none;stroke-dashoffset:0;stroke-opacity:1;color-rendering:auto;image-rendering:auto;shape-rendering:auto;text-rendering:auto;enable-background:accumulate"
       d="m 42.017578,173.82617 a 0.10001,0.10001 0 0 1 0.03125,0.0117 l 1.337891,0.75781 a 0.10001,0.10001 0 0 1 0.002,0.002 l 1.324219,0.77929 a 0.10001,0.10001 0 0 1 0.05078,0.084 l 0.01172,1.53906 -0.01172,1.53906 a 0.10001,0.10001 0 0 1 -0.05078,0.084 l -1.324219,0.77929 a 0.10001,0.10001 0 0 1 -0.002,0.002 l -1.337891,0.75781 a 0.10001,0.10001 0 0 1 -0.09766,0 l -1.337891,-0.75781 a 0.10001,0.10001 0 0 1 -0.002,-0.002 l -1.324219,-0.77929 a 0.10001,0.10001 0 0 1 -0.05078,-0.084 l -0.01172,-1.53906 0.01172,-1.53906 a 0.10001,0.10001 0 0 1 0.05078,-0.084 l 1.324219,-0.77929 a 0.10001,0.10001 0 0 1 0.002,-0.002 l 1.337891,-0.75781 a 0.10001,0.10001 0 0 1 0.06641,-0.0117 z"
       id="path1021"
       inkscape:connector-curvature="0" />
    <path
       style="color:#000000;font-style:normal;font-variant:normal;font-weight:normal;font-stretch:normal;font-size:medium;line-height:normal;font-family:sans-serif;font-variant-ligatures:normal;font-variant-position:normal;font-variant-caps:normal;font-variant-numeric:normal;font-variant-alternates:normal;font-feature-settings:normal;text-indent:0;text-align:start;text-decoration:none;text-decoration-line:none;text-decoration-style:solid;text-decoration-color:#000000;letter-spacing:normal;word-spacing:normal;text-transform:none;writing-mode:lr-tb;direction:ltr;text-orientation:mixed;dominant-baseline:auto;baseline-shift:baseline;text-anchor:start;white-space:normal;shape-padding:0;clip-rule:nonzero;display:inline;overflow:visible;visibility:visible;opacity:1;isolation:auto;mix-blend-mode:normal;color-interpolation:sRGB;color-interpolation-filters:linearRGB;solid-color:#000000;solid-opacity:1;vector-effect:none;fill:none;fill-opacity:1;fill-rule:evenodd;stroke:#ff0000;stroke-width:0.1;stroke-linecap:square;stroke-linejoin:round;stroke-miterlimit:4;stroke-dasharray:none;stroke-dashoffset:0;stroke-opacity:1;color-rendering:auto;image-rendering:auto;shape-rendering:auto;text-rendering:auto;enable-background:accumulate"
       d="m 188.01758,173.82617 a 0.10001,0.10001 0 0 1 0.0312,0.0117 l 1.33789,0.75781 a 0.10001,0.10001 0 0 1 0.002,0.002 l 1.32422,0.77929 a 0.10001,0.10001 0 0 1 0.0508,0.084 l 0.0117,1.53906 -0.0117,1.53906 a 0.10001,0.10001 0 0 1 -0.0508,0.084 l -1.32422,0.77929 a 0.10001,0.10001 0 0 1 -0.002,0.002 l -1.33789,0.75781 a 0.10001,0.10001 0 0 1 -0.0977,0 l -1.33789,-0.75781 a 0.10001,0.10001 0 0 1 -0.002,-0.002 l -1.32422,-0.77929 a 0.10001,0.10001 0 0 1 -0.0508,-0.084 l -0.0117,-1.53906 0.0117,-1.53906 a 0.10001,0.10001 0 0 1 0.0508,-0.084 l 1.32422,-0.77929 a 0.10001,0.10001 0 0 1 0.002,-0.002 l 1.33789,-0.75781 a 0.10001,0.10001 0 0 1 0.0664,-0.0117 z"
       id="path1037"
       inkscape:connector-curvature="0" />
    <path
       style="color:#000000;font-style:normal;font-variant:normal;font-weight:normal;font-stretch:normal;font-size:medium;line-height:normal;font-family:sans-serif;font-variant-ligatures:normal;font-variant-position:normal;font-variant-caps:normal;font-variant-numeric:normal;font-variant-alternates:normal;font-feature-settings:normal;text-indent:0;text-align:start;text-decoration:none;text-decoration-line:none;text-decoration-style:solid;text-decoration-color:#000000;letter-spacing:normal;word-spacing:normal;text-transform:none;writing-mode:lr-tb;direction:ltr;text-orientation:mixed;dominant-baseline:auto;baseline-shift:baseline;text-anchor:start;white-space:normal;shape-padding:0;clip-rule:nonzero;display:inline;overflow:visible;visibility:visible;opacity:1;isolation:auto;mix-blend-mode:normal;color-interpolation:sRGB;color-interpolation-filters:linearRGB;solid-color:#000000;solid-opacity:1;vector-effect:none;fill:none;fill-opacity:1;fill-rule:evenodd;stroke:#ff0000;stroke-width:0.1;stroke-linecap:square;stroke-linejoin:round;stroke-miterlimit:4;stroke-dasharray:none;stroke-dashoffset:0;stroke-opacity:1;color-rendering:auto;image-rendering:auto;shape-rendering:auto;text-rendering:auto;enable-background:accumulate"
       d="m 170.01758,173.82617 a 0.10001,0.10001 0 0 1 0.0312,0.0117 l 1.33789,0.75781 a 0.10001,0.10001 0 0 1 0.002,0.002 l 1.32422,0.77929 a 0.10001,0.10001 0 0 1 0.0508,0.084 l 0.0117,1.53906 -0.0117,1.53906 a 0.10001,0.10001 0 0 1 -0.0508,0.084 l -1.32422,0.77929 a 0.10001,0.10001 0 0 1 -0.002,0.002 l -1.33789,0.75781 a 0.10001,0.10001 0 0 1 -0.0977,0 l -1.33789,-0.75781 a 0.10001,0.10001 0 0 1 -0.002,-0.002 l -1.32422,-0.77929 a 0.10001,0.10001 0 0 1 -0.0508,-0.084 l -0.0117,-1.53906 0.0117,-1.53906 a 0.10001,0.10001 0 0 1 0.0508,-0.084 l 1.32422,-0.77929 a 0.10001,0.10001 0 0 1 0.002,-0.002 l 1.33789,-0.75781 a 0.10001,0.10001 0 0 1 0.0664,-0.0117 z"
       id="path1041"
       inkscape:connector-curvature="0" />
    <path
       transform="scale(-1,1)"
       style="opacity:1;fill:none;fill-opacity:1;fill-rule:evenodd;stroke:#000000;stroke-width:0.09670725;stroke-linecap:square;stroke-linejoin:miter;stroke-miterlimit:4;stroke-dasharray:none;stroke-opacity:1"
       d="M -113.54939,192 A 1.4506091,1.4506091 0 0 1 -115,193.45061 1.4506091,1.4506091 0 0 1 -116.45061,192 1.4506091,1.4506091 0 0 1 -115,190.54939 1.4506091,1.4506091 0 0 1 -113.54939,192 Z"
       id="circle938"
       inkscape:connector-curvature="0" />
    <path
       transform="scale(-1,1)"
       style="opacity:1;fill:none;fill-opacity:1;fill-rule:evenodd;stroke:#000000;stroke-width:0.09670725;stroke-linecap:square;stroke-linejoin:miter;stroke-miterlimit:4;stroke-dasharray:none;stroke-opacity:1"
       d="M -113.54939,212 A 1.4506091,1.4506091 0 0 1 -115,213.45061 1.4506091,1.4506091 0 0 1 -116.45061,212 1.4506091,1.4506091 0 0 1 -115,210.54939 1.4506091,1.4506091 0 0 1 -113.54939,212 Z"
       id="circle940"
       inkscape:connector-curvature="0" />
    <path
       transform="scale(-1)"
       style="opacity:1;fill:none;fill-opacity:1;fill-rule:evenodd;stroke:#000000;stroke-width:0.1033333;stroke-linecap:square;stroke-linejoin:miter;stroke-miterlimit:4;stroke-dasharray:none;stroke-opacity:1"
       d="m -113.45,-177 a 1.55,1.55 0 0 1 -1.55,1.55 1.55,1.55 0 0 1 -1.55,-1.55 1.55,1.55 0 0 1 1.55,-1.55 1.55,1.55 0 0 1 1.55,1.55 z"
       id="circle946"
       inkscape:connector-curvature="0" />
    <path
       transform="scale(-1)"
       style="opacity:1;fill:none;fill-opacity:1;fill-rule:evenodd;stroke:#000000;stroke-width:0.1033333;stroke-linecap:square;stroke-linejoin:miter;stroke-miterlimit:4;stroke-dasharray:none;stroke-opacity:1"
       d="m -113.45,-157 a 1.55,1.55 0 0 1 -1.55,1.55 1.55,1.55 0 0 1 -1.55,-1.55 1.55,1.55 0 0 1 1.55,-1.55 1.55,1.55 0 0 1 1.55,1.55 z"
       id="circle948"
       inkscape:connector-curvature="0" />
    <path
       style="color:#000000;font-style:normal;font-variant:normal;font-weight:normal;font-stretch:normal;font-size:medium;line-height:normal;font-family:sans-serif;font-variant-ligatures:normal;font-variant-position:normal;font-variant-caps:normal;font-variant-numeric:normal;font-variant-alternates:normal;font-feature-settings:normal;text-indent:0;text-align:start;text-decoration:none;text-decoration-line:none;text-decoration-style:solid;text-decoration-color:#000000;letter-spacing:normal;word-spacing:normal;text-transform:none;writing-mode:lr-tb;direction:ltr;text-orientation:mixed;dominant-baseline:auto;baseline-shift:baseline;text-anchor:start;white-space:normal;shape-padding:0;clip-rule:nonzero;display:inline;overflow:visible;visibility:visible;opacity:1;isolation:auto;mix-blend-mode:normal;color-interpolation:sRGB;color-interpolation-filters:linearRGB;solid-color:#000000;solid-opacity:1;vector-effect:none;fill:none;fill-opacity:1;fill-rule:evenodd;stroke:#ff0000;stroke-width:0.1;stroke-linecap:square;stroke-linejoin:round;stroke-miterlimit:4;stroke-dasharray:none;stroke-dashoffset:0;stroke-opacity:1;color-rendering:auto;image-rendering:auto;shape-rendering:auto;text-rendering:auto;enable-background:accumulate"
       d="m 115.01758,153.82617 a 0.10001,0.10001 0 0 1 0.0312,0.0117 l 1.33789,0.75781 a 0.10001,0.10001 0 0 1 0.002,0.002 l 1.32422,0.77929 a 0.10001,0.10001 0 0 1 0.0508,0.084 l 0.0117,1.53906 -0.0117,1.53906 a 0.10001,0.10001 0 0 1 -0.0508,0.084 l -1.32422,0.77929 a 0.10001,0.10001 0 0 1 -0.002,0.002 l -1.33789,0.75781 a 0.10001,0.10001 0 0 1 -0.0977,0 l -1.33789,-0.75781 a 0.10001,0.10001 0 0 1 -0.002,-0.002 l -1.32422,-0.77929 a 0.10001,0.10001 0 0 1 -0.0508,-0.084 l -0.0117,-1.53906 0.0117,-1.53906 a 0.10001,0.10001 0 0 1 0.0508,-0.084 l 1.32422,-0.77929 a 0.10001,0.10001 0 0 1 0.002,-0.002 l 1.33789,-0.75781 a 0.10001,0.10001 0 0 1 0.0664,-0.0117 z"
       id="path1029"
       inkscape:connector-curvature="0" />
    <path
       style="color:#000000;font-style:normal;font-variant:normal;font-weight:normal;font-stretch:normal;font-size:medium;line-height:normal;font-family:sans-serif;font-variant-ligatures:normal;font-variant-position:normal;font-variant-caps:normal;font-variant-numeric:normal;font-variant-alternates:normal;font-feature-settings:normal;text-indent:0;text-align:start;text-decoration:none;text-decoration-line:none;text-decoration-style:solid;text-decoration-color:#000000;letter-spacing:normal;word-spacing:normal;text-transform:none;writing-mode:lr-tb;direction:ltr;text-orientation:mixed;dominant-baseline:auto;baseline-shift:baseline;text-anchor:start;white-space:normal;shape-padding:0;clip-rule:nonzero;display:inline;overflow:visible;visibility:visible;opacity:1;isolation:auto;mix-blend-mode:normal;color-interpolation:sRGB;color-interpolation-filters:linearRGB;solid-color:#000000;solid-opacity:1;vector-effect:none;fill:none;fill-opacity:1;fill-rule:evenodd;stroke:#ff0000;stroke-width:0.1;stroke-linecap:square;stroke-linejoin:round;stroke-miterlimit:4;stroke-dasharray:none;stroke-dashoffset:0;stroke-opacity:1;color-rendering:auto;image-rendering:auto;shape-rendering:auto;text-rendering:auto;enable-background:accumulate"
       d="m 115.01758,173.82617 a 0.10001,0.10001 0 0 1 0.0312,0.0117 l 1.33789,0.75781 a 0.10001,0.10001 0 0 1 0.002,0.002 l 1.32422,0.77929 a 0.10001,0.10001 0 0 1 0.0508,0.084 l 0.0117,1.53906 -0.0117,1.53906 a 0.10001,0.10001 0 0 1 -0.0508,0.084 l -1.32422,0.77929 a 0.10001,0.10001 0 0 1 -0.002,0.002 l -1.33789,0.75781 a 0.10001,0.10001 0 0 1 -0.0977,0 l -1.33789,-0.75781 a 0.10001,0.10001 0 0 1 -0.002,-0.002 l -1.32422,-0.77929 a 0.10001,0.10001 0 0 1 -0.0508,-0.084 l -0.0117,-1.53906 0.0117,-1.53906 a 0.10001,0.10001 0 0 1 0.0508,-0.084 l 1.32422,-0.77929 a 0.10001,0.10001 0 0 1 0.002,-0.002 l 1.33789,-0.75781 a 0.10001,0.10001 0 0 1 0.0664,-0.0117 z"
       id="path1025"
       inkscape:connector-curvature="0" />
    <path
       style="color:#000000;font-style:normal;font-variant:normal;font-weight:normal;font-stretch:normal;font-size:medium;line-height:normal;font-family:sans-serif;font-variant-ligatures:normal;font-variant-position:normal;font-variant-caps:normal;font-variant-numeric:normal;font-variant-alternates:normal;font-feature-settings:normal;text-indent:0;text-align:start;text-decoration:none;text-decoration-line:none;text-decoration-style:solid;text-decoration-color:#000000;letter-spacing:normal;word-spacing:normal;text-transform:none;writing-mode:lr-tb;direction:ltr;text-orientation:mixed;dominant-baseline:auto;baseline-shift:baseline;text-anchor:start;white-space:normal;shape-padding:0;clip-rule:nonzero;display:inline;overflow:visible;visibility:visible;opacity:1;isolation:auto;mix-blend-mode:normal;color-interpolation:sRGB;color-interpolation-filters:linearRGB;solid-color:#000000;solid-opacity:1;vector-effect:none;fill:none;fill-opacity:1;fill-rule:evenodd;stroke:#ff0000;stroke-width:0.1;stroke-linecap:square;stroke-linejoin:round;stroke-miterlimit:4;stroke-dasharray:none;stroke-dashoffset:0;stroke-opacity:1;color-rendering:auto;image-rendering:auto;shape-rendering:auto;text-rendering:auto;enable-background:accumulate"
       d="m 115.01758,118.82617 a 0.10001,0.10001 0 0 1 0.0312,0.0117 l 1.33789,0.75781 a 0.10001,0.10001 0 0 1 0.002,0.002 l 1.32422,0.77929 a 0.10001,0.10001 0 0 1 0.0508,0.084 l 0.0117,1.53906 -0.0117,1.53906 a 0.10001,0.10001 0 0 1 -0.0508,0.084 l -1.32422,0.77929 a 0.10001,0.10001 0 0 1 -0.002,0.002 l -1.33789,0.75781 a 0.10001,0.10001 0 0 1 -0.0977,0 l -1.33789,-0.75781 a 0.10001,0.10001 0 0 1 -0.002,-0.002 l -1.32422,-0.77929 a 0.10001,0.10001 0 0 1 -0.0508,-0.084 l -0.0117,-1.53906 0.0117,-1.53906 a 0.10001,0.10001 0 0 1 0.0508,-0.084 l 1.32422,-0.77929 a 0.10001,0.10001 0 0 1 0.002,-0.002 l 1.33789,-0.75781 a 0.10001,0.10001 0 0 1 0.0664,-0.0117 z"
       id="path993"
       inkscape:connector-curvature="0" />
    <path
       style="color:#000000;font-style:normal;font-variant:normal;font-weight:normal;font-stretch:normal;font-size:medium;line-height:normal;font-family:sans-serif;font-variant-ligatures:normal;font-variant-position:normal;font-variant-caps:normal;font-variant-numeric:normal;font-variant-alternates:normal;font-feature-settings:normal;text-indent:0;text-align:start;text-decoration:none;text-decoration-line:none;text-decoration-style:solid;text-decoration-color:#000000;letter-spacing:normal;word-spacing:normal;text-transform:none;writing-mode:lr-tb;direction:ltr;text-orientation:mixed;dominant-baseline:auto;baseline-shift:baseline;text-anchor:start;white-space:normal;shape-padding:0;clip-rule:nonzero;display:inline;overflow:visible;visibility:visible;opacity:1;isolation:auto;mix-blend-mode:normal;color-interpolation:sRGB;color-interpolation-filters:linearRGB;solid-color:#000000;solid-opacity:1;vector-effect:none;fill:none;fill-opacity:1;fill-rule:evenodd;stroke:#ff0000;stroke-width:0.1;stroke-linecap:square;stroke-linejoin:round;stroke-miterlimit:4;stroke-dasharray:none;stroke-dashoffset:0;stroke-opacity:1;color-rendering:auto;image-rendering:auto;shape-rendering:auto;text-rendering:auto;enable-background:accumulate"
       d="m 115.01758,138.82617 a 0.10001,0.10001 0 0 1 0.0312,0.0117 l 1.33789,0.75781 a 0.10001,0.10001 0 0 1 0.002,0.002 l 1.32422,0.77929 a 0.10001,0.10001 0 0 1 0.0508,0.084 l 0.0117,1.53906 -0.0117,1.53906 a 0.10001,0.10001 0 0 1 -0.0508,0.084 l -1.32422,0.77929 a 0.10001,0.10001 0 0 1 -0.002,0.002 l -1.33789,0.75781 a 0.10001,0.10001 0 0 1 -0.0977,0 l -1.33789,-0.75781 a 0.10001,0.10001 0 0 1 -0.002,-0.002 l -1.32422,-0.77929 a 0.10001,0.10001 0 0 1 -0.0508,-0.084 l -0.0117,-1.53906 0.0117,-1.53906 a 0.10001,0.10001 0 0 1 0.0508,-0.084 l 1.32422,-0.77929 a 0.10001,0.10001 0 0 1 0.002,-0.002 l 1.33789,-0.75781 a 0.10001,0.10001 0 0 1 0.0664,-0.0117 z"
       id="path1009"
       inkscape:connector-curvature="0" />
    <text
       id="text902"
       y="131.6685"
       x="221.34526"
       style="font-style:normal;font-variant:normal;font-weight:normal;font-stretch:normal;font-size:3.52777767px;line-height:4.5px;font-family:sans-serif;-inkscape-font-specification:sans-serif;text-align:center;letter-spacing:0px;word-spacing:0px;text-anchor:middle;fill:#ff00ff;fill-opacity:1;stroke:none;stroke-width:0.26458332px;stroke-linecap:butt;stroke-linejoin:miter;stroke-opacity:1"
       xml:space="preserve"><tspan
         id="tspan900"
         style="font-style:normal;font-variant:normal;font-weight:normal;font-stretch:normal;line-height:4.5px;font-family:sans-serif;-inkscape-font-specification:sans-serif;text-align:center;letter-spacing:0px;text-anchor:middle;fill:#ff00ff;stroke:none;stroke-width:0.26458332px"
         y="131.6685"
         x="221.34526"
         sodipodi:role="line">TOP</tspan><tspan
         style="font-style:normal;font-variant:normal;font-weight:normal;font-stretch:normal;line-height:4.5px;font-family:sans-serif;-inkscape-font-specification:sans-serif;text-align:center;letter-spacing:0px;text-anchor:middle;fill:#ff00ff;stroke:none;stroke-width:0.26458332px"
         y="136.1685"
         x="221.34526"
         sodipodi:role="line"
         id="tspan906">(bottom view)</tspan></text>
    <text
       xml:space="preserve"
       style="font-style:normal;font-variant:normal;font-weight:normal;font-stretch:normal;font-size:3.52777767px;line-height:4.5px;font-family:sans-serif;-inkscape-font-specification:sans-serif;text-align:center;letter-spacing:0px;word-spacing:0px;text-anchor:middle;fill:#ff00ff;fill-opacity:1;stroke:none;stroke-width:0.26458332px;stroke-linecap:butt;stroke-linejoin:miter;stroke-opacity:1"
       x="217.8015"
       y="165.13831"
       id="text922"><tspan
         sodipodi:role="line"
         x="217.8015"
         y="165.13831"
         style="font-style:normal;font-variant:normal;font-weight:normal;font-stretch:normal;line-height:4.5px;font-family:sans-serif;-inkscape-font-specification:sans-serif;text-align:center;letter-spacing:0px;text-anchor:middle;fill:#ff00ff;stroke:none;stroke-width:0.26458332px"
         id="tspan918">MID</tspan><tspan
         id="tspan920"
         sodipodi:role="line"
         x="217.8015"
         y="169.63831"
         style="font-style:normal;font-variant:normal;font-weight:normal;font-stretch:normal;line-height:4.5px;font-family:sans-serif;-inkscape-font-specification:sans-serif;text-align:center;letter-spacing:0px;text-anchor:middle;fill:#ff00ff;stroke:none;stroke-width:0.26458332px">(top view)</tspan></text>
    <text
       id="text928"
       y="200.85706"
       x="217.8015"
       style="font-style:normal;font-variant:normal;font-weight:normal;font-stretch:normal;font-size:3.52777767px;line-height:4.5px;font-family:sans-serif;-inkscape-font-specification:sans-serif;text-align:center;letter-spacing:0px;word-spacing:0px;text-anchor:middle;fill:#ff00ff;fill-opacity:1;stroke:none;stroke-width:0.26458332px;stroke-linecap:butt;stroke-linejoin:miter;stroke-opacity:1"
       xml:space="preserve"><tspan
         id="tspan924"
         style="font-style:normal;font-variant:normal;font-weight:normal;font-stretch:normal;line-height:4.5px;font-family:sans-serif;-inkscape-font-specification:sans-serif;text-align:center;letter-spacing:0px;text-anchor:middle;fill:#ff00ff;stroke:none;stroke-width:0.26458332px"
         y="200.85706"
         x="217.8015"
         sodipodi:role="line">BASE</tspan><tspan
         style="font-style:normal;font-variant:normal;font-weight:normal;font-stretch:normal;line-height:4.5px;font-family:sans-serif;-inkscape-font-specification:sans-serif;text-align:center;letter-spacing:0px;text-anchor:middle;fill:#ff00ff;stroke:none;stroke-width:0.26458332px"
         y="205.35706"
         x="217.8015"
         sodipodi:role="line"
         id="tspan926">(top view)</tspan></text>
    <path
       inkscape:connector-curvature="0"
       id="path2355"
       d="M 195.00001,222 H 34.999992 C 32.229997,222 30,224.23 30,226.99999 v 20.00002 C 30,249.77001 32.229997,252 34.999992,252 H 195.00001 C 197.77,252 200,249.77001 200,247.00001 V 226.99999 C 200,224.23 197.77,222 195.00001,222 Z"
       style="opacity:1;fill:none;fill-opacity:1;stroke:#000000;stroke-width:0.10000001;stroke-linejoin:miter;stroke-miterlimit:4;stroke-dasharray:none;stroke-opacity:1" />
    <text
       xml:space="preserve"
       style="font-style:normal;font-variant:normal;font-weight:normal;font-stretch:normal;font-size:3.52777767px;line-height:4.5px;font-family:sans-serif;-inkscape-font-specification:sans-serif;text-align:center;letter-spacing:0px;word-spacing:0px;text-anchor:middle;fill:#ff00ff;fill-opacity:1;stroke:none;stroke-width:0.26458332px;stroke-linecap:butt;stroke-linejoin:miter;stroke-opacity:1"
       x="212.70793"
       y="238.28244"
       id="text2377"><tspan
         id="tspan2375"
         sodipodi:role="line"
         x="212.70793"
         y="238.28244"
         style="font-style:normal;font-variant:normal;font-weight:normal;font-stretch:normal;line-height:4.5px;font-family:sans-serif;-inkscape-font-specification:sans-serif;text-align:center;letter-spacing:0px;text-anchor:middle;fill:#ff00ff;stroke:none;stroke-width:0.26458332px">FELT</tspan></text>
    <circle
       style="opacity:1;fill:none;fill-opacity:1;fill-rule:evenodd;stroke:#000000;stroke-width:0.15000001;stroke-linecap:square;stroke-linejoin:round;stroke-miterlimit:4;stroke-dasharray:none;stroke-dashoffset:0;stroke-opacity:1"
       id="path2381"
       cx="42"
       cy="247"
       r="3" />
    <circle
       r="3"
       cy="247"
       cx="115"
       id="circle2383"
       style="opacity:1;fill:none;fill-opacity:1;fill-rule:evenodd;stroke:#000000;stroke-width:0.15000001;stroke-linecap:square;stroke-linejoin:round;stroke-miterlimit:4;stroke-dasharray:none;stroke-dashoffset:0;stroke-opacity:1" />
    <circle
       style="opacity:1;fill:none;fill-opacity:1;fill-rule:evenodd;stroke:#000000;stroke-width:0.15000001;stroke-linecap:square;stroke-linejoin:round;stroke-miterlimit:4;stroke-dasharray:none;stroke-dashoffset:0;stroke-opacity:1"
       id="circle2385"
       cx="170"
       cy="247"
       r="3" />
    <circle
       r="3"
       cy="247"
       cx="188"
       id="circle2387"
       style="opacity:1;fill:none;fill-opacity:1;fill-rule:evenodd;stroke:#000000;stroke-width:0.15000001;stroke-linecap:square;stroke-linejoin:round;stroke-miterlimit:4;stroke-dasharray:none;stroke-dashoffset:0;stroke-opacity:1" />
    <circle
       style="opacity:1;fill:none;fill-opacity:1;fill-rule:evenodd;stroke:#000000;stroke-width:0.15000001;stroke-linecap:square;stroke-linejoin:round;stroke-miterlimit:4;stroke-dasharray:none;stroke-dashoffset:0;stroke-opacity:1"
       id="circle2389"
       cx="188"
       cy="227"
       r="3" />
    <circle
       r="3"
       cy="227"
       cx="115"
       id="circle2391"
       style="opacity:1;fill:none;fill-opacity:1;fill-rule:evenodd;stroke:#000000;stroke-width:0.15000001;stroke-linecap:square;stroke-linejoin:round;stroke-miterlimit:4;stroke-dasharray:none;stroke-dashoffset:0;stroke-opacity:1" />
    <circle
       style="opacity:1;fill:none;fill-opacity:1;fill-rule:evenodd;stroke:#000000;stroke-width:0.15000001;stroke-linecap:square;stroke-linejoin:round;stroke-miterlimit:4;stroke-dasharray:none;stroke-dashoffset:0;stroke-opacity:1"
       id="circle2393"
       cx="42"
       cy="227"
       r="3" />
  </g>
</svg>
